M48
;DRILL file {KiCad (5.0.0-rc2-dev-82-ga78607874)} date Fri Mar  9 02:59:29 2018
;FORMAT={-:-/ absolute / inch / decimal}
FMAT,2
INCH,TZ
T1C0.0157
%
G90
G05
M72
T1
X2.475Y-1.65
X2.5Y-1.475
X2.635Y-1.675
X2.65Y-1.285
X2.65Y-1.78
X2.67Y-1.56
X2.67Y-1.605
X2.72Y-1.715
X2.765Y-1.94
X2.785Y-1.715
X2.82Y-1.41
X2.825Y-1.2
X2.83Y-1.29
X2.975Y-2.15
X3.Y-1.835
X3.005Y-1.28
X3.025Y-2.15
X3.07Y-1.48
X3.125Y-1.835
X3.175Y-1.2
X3.175Y-1.435
X3.18Y-1.995
X3.215Y-1.715
X3.225Y-1.86
X3.235Y-1.94
X3.34Y-1.59
X3.35Y-1.285
X3.37Y-1.805
X3.39Y-1.37
X3.425Y-1.315
X3.5Y-1.475
X3.525Y-1.65
T0
M30
