G04 #@! TF.GenerationSoftware,KiCad,Pcbnew,(5.0.0-rc2-dev-82-ga78607874)*
G04 #@! TF.CreationDate,2018-03-09T02:59:27+08:00*
G04 #@! TF.ProjectId,SMD-Heart,534D442D48656172742E6B696361645F,rev?*
G04 #@! TF.SameCoordinates,Original*
G04 #@! TF.FileFunction,Paste,Top*
G04 #@! TF.FilePolarity,Positive*
%FSLAX46Y46*%
G04 Gerber Fmt 4.6, Leading zero omitted, Abs format (unit mm)*
G04 Created by KiCad (PCBNEW (5.0.0-rc2-dev-82-ga78607874)) date Fri Mar  9 02:59:27 2018*
%MOMM*%
%LPD*%
G01*
G04 APERTURE LIST*
%ADD10C,0.670000*%
%ADD11C,0.100000*%
%ADD12C,0.845000*%
%ADD13R,0.845000X1.000000*%
%ADD14R,1.000000X0.845000*%
%ADD15R,0.670000X1.000000*%
%ADD16R,1.000000X0.670000*%
%ADD17R,0.400000X0.650000*%
%ADD18R,0.650000X0.400000*%
%ADD19C,0.400000*%
G04 APERTURE END LIST*
D10*
X73676282Y-52721282D03*
D11*
G36*
X73085848Y-52837955D02*
X73792955Y-52130848D01*
X74266716Y-52604609D01*
X73559609Y-53311716D01*
X73085848Y-52837955D01*
X73085848Y-52837955D01*
G37*
D10*
X74913718Y-53958718D03*
D11*
G36*
X74323284Y-54075391D02*
X75030391Y-53368284D01*
X75504152Y-53842045D01*
X74797045Y-54549152D01*
X74323284Y-54075391D01*
X74323284Y-54075391D01*
G37*
D12*
X67355590Y-46400590D03*
D11*
G36*
X68007896Y-46345789D02*
X67300789Y-47052896D01*
X66703284Y-46455391D01*
X67410391Y-45748284D01*
X68007896Y-46345789D01*
X68007896Y-46345789D01*
G37*
D12*
X65994410Y-45039410D03*
D11*
G36*
X66646716Y-44984609D02*
X65939609Y-45691716D01*
X65342104Y-45094211D01*
X66049211Y-44387104D01*
X66646716Y-44984609D01*
X66646716Y-44984609D01*
G37*
D13*
X83512500Y-32004000D03*
X81587500Y-32004000D03*
X83512500Y-33528000D03*
X81587500Y-33528000D03*
D12*
X85298410Y-33990410D03*
D11*
G36*
X85950716Y-33935609D02*
X85243609Y-34642716D01*
X84646104Y-34045211D01*
X85353211Y-33338104D01*
X85950716Y-33935609D01*
X85950716Y-33935609D01*
G37*
D12*
X86659590Y-35351590D03*
D11*
G36*
X87311896Y-35296789D02*
X86604789Y-36003896D01*
X86007284Y-35406391D01*
X86714391Y-34699284D01*
X87311896Y-35296789D01*
X87311896Y-35296789D01*
G37*
D13*
X88592500Y-38735000D03*
X86667500Y-38735000D03*
D12*
X85262590Y-43896410D03*
D11*
G36*
X85317391Y-44548716D02*
X84610284Y-43841609D01*
X85207789Y-43244104D01*
X85914896Y-43951211D01*
X85317391Y-44548716D01*
X85317391Y-44548716D01*
G37*
D12*
X83901410Y-45257590D03*
D11*
G36*
X83956211Y-45909896D02*
X83249104Y-45202789D01*
X83846609Y-44605284D01*
X84553716Y-45312391D01*
X83956211Y-45909896D01*
X83956211Y-45909896D01*
G37*
D12*
X82758410Y-44114590D03*
D11*
G36*
X82813211Y-44766896D02*
X82106104Y-44059789D01*
X82703609Y-43462284D01*
X83410716Y-44169391D01*
X82813211Y-44766896D01*
X82813211Y-44766896D01*
G37*
D12*
X84119590Y-42753410D03*
D11*
G36*
X84174391Y-43405716D02*
X83467284Y-42698609D01*
X84064789Y-42101104D01*
X84771896Y-42808211D01*
X84174391Y-43405716D01*
X84174391Y-43405716D01*
G37*
D12*
X78821410Y-50337590D03*
D11*
G36*
X78766609Y-49685284D02*
X79473716Y-50392391D01*
X78876211Y-50989896D01*
X78169104Y-50282789D01*
X78766609Y-49685284D01*
X78766609Y-49685284D01*
G37*
D12*
X80182590Y-48976410D03*
D11*
G36*
X80127789Y-48324104D02*
X80834896Y-49031211D01*
X80237391Y-49628716D01*
X79530284Y-48921609D01*
X80127789Y-48324104D01*
X80127789Y-48324104D01*
G37*
D12*
X72217410Y-48976410D03*
D11*
G36*
X71565104Y-49031211D02*
X72272211Y-48324104D01*
X72869716Y-48921609D01*
X72162609Y-49628716D01*
X71565104Y-49031211D01*
X71565104Y-49031211D01*
G37*
D12*
X73578590Y-50337590D03*
D11*
G36*
X72926284Y-50392391D02*
X73633391Y-49685284D01*
X74230896Y-50282789D01*
X73523789Y-50989896D01*
X72926284Y-50392391D01*
X72926284Y-50392391D01*
G37*
D12*
X68280410Y-42753410D03*
D11*
G36*
X68932716Y-42698609D02*
X68225609Y-43405716D01*
X67628104Y-42808211D01*
X68335211Y-42101104D01*
X68932716Y-42698609D01*
X68932716Y-42698609D01*
G37*
D12*
X69641590Y-44114590D03*
D11*
G36*
X70293896Y-44059789D02*
X69586789Y-44766896D01*
X68989284Y-44169391D01*
X69696391Y-43462284D01*
X70293896Y-44059789D01*
X70293896Y-44059789D01*
G37*
D12*
X68498590Y-45257590D03*
D11*
G36*
X69150896Y-45202789D02*
X68443789Y-45909896D01*
X67846284Y-45312391D01*
X68553391Y-44605284D01*
X69150896Y-45202789D01*
X69150896Y-45202789D01*
G37*
D12*
X67137410Y-43896410D03*
D11*
G36*
X67789716Y-43841609D02*
X67082609Y-44548716D01*
X66485104Y-43951211D01*
X67192211Y-43244104D01*
X67789716Y-43841609D01*
X67789716Y-43841609D01*
G37*
D13*
X65732500Y-38735000D03*
X63807500Y-38735000D03*
D12*
X65740410Y-35351590D03*
D11*
G36*
X65795211Y-36003896D02*
X65088104Y-35296789D01*
X65685609Y-34699284D01*
X66392716Y-35406391D01*
X65795211Y-36003896D01*
X65795211Y-36003896D01*
G37*
D12*
X67101590Y-33990410D03*
D11*
G36*
X67156391Y-34642716D02*
X66449284Y-33935609D01*
X67046789Y-33338104D01*
X67753896Y-34045211D01*
X67156391Y-34642716D01*
X67156391Y-34642716D01*
G37*
D13*
X68887500Y-33528000D03*
X70812500Y-33528000D03*
D14*
X78486000Y-36522500D03*
X78486000Y-34597500D03*
D10*
X87646282Y-43798718D03*
D11*
G36*
X87762955Y-44389152D02*
X87055848Y-43682045D01*
X87529609Y-43208284D01*
X88236716Y-43915391D01*
X87762955Y-44389152D01*
X87762955Y-44389152D01*
G37*
D10*
X88883718Y-42561282D03*
D11*
G36*
X89000391Y-43151716D02*
X88293284Y-42444609D01*
X88767045Y-41970848D01*
X89474152Y-42677955D01*
X89000391Y-43151716D01*
X89000391Y-43151716D01*
G37*
D10*
X64753718Y-31766282D03*
D11*
G36*
X64870391Y-32356716D02*
X64163284Y-31649609D01*
X64637045Y-31175848D01*
X65344152Y-31882955D01*
X64870391Y-32356716D01*
X64870391Y-32356716D01*
G37*
D10*
X63516282Y-33003718D03*
D11*
G36*
X63632955Y-33594152D02*
X62925848Y-32887045D01*
X63399609Y-32413284D01*
X64106716Y-33120391D01*
X63632955Y-33594152D01*
X63632955Y-33594152D01*
G37*
D15*
X77075000Y-34163000D03*
X75325000Y-34163000D03*
X81675000Y-30480000D03*
X83425000Y-30480000D03*
D10*
X88883718Y-33003718D03*
D11*
G36*
X89474152Y-32887045D02*
X88767045Y-33594152D01*
X88293284Y-33120391D01*
X89000391Y-32413284D01*
X89474152Y-32887045D01*
X89474152Y-32887045D01*
G37*
D10*
X87646282Y-31766282D03*
D11*
G36*
X88236716Y-31649609D02*
X87529609Y-32356716D01*
X87055848Y-31882955D01*
X87762955Y-31175848D01*
X88236716Y-31649609D01*
X88236716Y-31649609D01*
G37*
D16*
X90170000Y-37225000D03*
X90170000Y-38975000D03*
D10*
X83803718Y-47641282D03*
D11*
G36*
X83687045Y-47050848D02*
X84394152Y-47757955D01*
X83920391Y-48231716D01*
X83213284Y-47524609D01*
X83687045Y-47050848D01*
X83687045Y-47050848D01*
G37*
D10*
X82566282Y-48878718D03*
D11*
G36*
X82449609Y-48288284D02*
X83156716Y-48995391D01*
X82682955Y-49469152D01*
X81975848Y-48762045D01*
X82449609Y-48288284D01*
X82449609Y-48288284D01*
G37*
D10*
X77486282Y-53958718D03*
D11*
G36*
X77369609Y-53368284D02*
X78076716Y-54075391D01*
X77602955Y-54549152D01*
X76895848Y-53842045D01*
X77369609Y-53368284D01*
X77369609Y-53368284D01*
G37*
D10*
X78723718Y-52721282D03*
D11*
G36*
X78607045Y-52130848D02*
X79314152Y-52837955D01*
X78840391Y-53311716D01*
X78133284Y-52604609D01*
X78607045Y-52130848D01*
X78607045Y-52130848D01*
G37*
D10*
X69833718Y-48878718D03*
D11*
G36*
X69243284Y-48995391D02*
X69950391Y-48288284D01*
X70424152Y-48762045D01*
X69717045Y-49469152D01*
X69243284Y-48995391D01*
X69243284Y-48995391D01*
G37*
D10*
X68596282Y-47641282D03*
D11*
G36*
X68005848Y-47757955D02*
X68712955Y-47050848D01*
X69186716Y-47524609D01*
X68479609Y-48231716D01*
X68005848Y-47757955D01*
X68005848Y-47757955D01*
G37*
D10*
X64753718Y-43798718D03*
D11*
G36*
X65344152Y-43682045D02*
X64637045Y-44389152D01*
X64163284Y-43915391D01*
X64870391Y-43208284D01*
X65344152Y-43682045D01*
X65344152Y-43682045D01*
G37*
D10*
X63516282Y-42561282D03*
D11*
G36*
X64106716Y-42444609D02*
X63399609Y-43151716D01*
X62925848Y-42677955D01*
X63632955Y-41970848D01*
X64106716Y-42444609D01*
X64106716Y-42444609D01*
G37*
D16*
X62230000Y-37225000D03*
X62230000Y-38975000D03*
D15*
X68975000Y-30480000D03*
X70725000Y-30480000D03*
D17*
X75550000Y-37526000D03*
X76850000Y-37526000D03*
X76200000Y-35626000D03*
X76200000Y-37526000D03*
X76850000Y-35626000D03*
X75550000Y-35626000D03*
D18*
X68900000Y-36464000D03*
X68900000Y-35164000D03*
X70800000Y-35814000D03*
X68900000Y-35814000D03*
X70800000Y-35164000D03*
X70800000Y-36464000D03*
D19*
X67298371Y-41570868D03*
D11*
G36*
X67386759Y-41199637D02*
X67669602Y-41482480D01*
X67209983Y-41942099D01*
X66927140Y-41659256D01*
X67386759Y-41199637D01*
X67386759Y-41199637D01*
G37*
D19*
X66379132Y-40651629D03*
D11*
G36*
X66467520Y-40280398D02*
X66750363Y-40563241D01*
X66290744Y-41022860D01*
X66007901Y-40740017D01*
X66467520Y-40280398D01*
X66467520Y-40280398D01*
G37*
D19*
X65495249Y-42454751D03*
D11*
G36*
X65583637Y-42083520D02*
X65866480Y-42366363D01*
X65406861Y-42825982D01*
X65124018Y-42543139D01*
X65583637Y-42083520D01*
X65583637Y-42083520D01*
G37*
D19*
X66838751Y-41111249D03*
D11*
G36*
X66927139Y-40740018D02*
X67209982Y-41022861D01*
X66750363Y-41482480D01*
X66467520Y-41199637D01*
X66927139Y-40740018D01*
X66927139Y-40740018D01*
G37*
D19*
X65035629Y-41995132D03*
D11*
G36*
X65124017Y-41623901D02*
X65406860Y-41906744D01*
X64947241Y-42366363D01*
X64664398Y-42083520D01*
X65124017Y-41623901D01*
X65124017Y-41623901D01*
G37*
D19*
X65954868Y-42914371D03*
D11*
G36*
X66043256Y-42543140D02*
X66326099Y-42825983D01*
X65866480Y-43285602D01*
X65583637Y-43002759D01*
X66043256Y-42543140D01*
X66043256Y-42543140D01*
G37*
D19*
X80857132Y-44207629D03*
D11*
G36*
X80768744Y-44578860D02*
X80485901Y-44296017D01*
X80945520Y-43836398D01*
X81228363Y-44119241D01*
X80768744Y-44578860D01*
X80768744Y-44578860D01*
G37*
D19*
X81776371Y-45126868D03*
D11*
G36*
X81687983Y-45498099D02*
X81405140Y-45215256D01*
X81864759Y-44755637D01*
X82147602Y-45038480D01*
X81687983Y-45498099D01*
X81687983Y-45498099D01*
G37*
D19*
X79973249Y-46010751D03*
D11*
G36*
X79884861Y-46381982D02*
X79602018Y-46099139D01*
X80061637Y-45639520D01*
X80344480Y-45922363D01*
X79884861Y-46381982D01*
X79884861Y-46381982D01*
G37*
D19*
X81316751Y-44667249D03*
D11*
G36*
X81228363Y-45038480D02*
X80945520Y-44755637D01*
X81405139Y-44296018D01*
X81687982Y-44578861D01*
X81228363Y-45038480D01*
X81228363Y-45038480D01*
G37*
D19*
X80432868Y-46470371D03*
D11*
G36*
X80344480Y-46841602D02*
X80061637Y-46558759D01*
X80521256Y-46099140D01*
X80804099Y-46381983D01*
X80344480Y-46841602D01*
X80344480Y-46841602D01*
G37*
D19*
X79513629Y-45551132D03*
D11*
G36*
X79425241Y-45922363D02*
X79142398Y-45639520D01*
X79602017Y-45179901D01*
X79884860Y-45462744D01*
X79425241Y-45922363D01*
X79425241Y-45922363D01*
G37*
D19*
X86020868Y-40651629D03*
D11*
G36*
X85649637Y-40563241D02*
X85932480Y-40280398D01*
X86392099Y-40740017D01*
X86109256Y-41022860D01*
X85649637Y-40563241D01*
X85649637Y-40563241D01*
G37*
D19*
X85101629Y-41570868D03*
D11*
G36*
X84730398Y-41482480D02*
X85013241Y-41199637D01*
X85472860Y-41659256D01*
X85190017Y-41942099D01*
X84730398Y-41482480D01*
X84730398Y-41482480D01*
G37*
D19*
X86904751Y-42454751D03*
D11*
G36*
X86533520Y-42366363D02*
X86816363Y-42083520D01*
X87275982Y-42543139D01*
X86993139Y-42825982D01*
X86533520Y-42366363D01*
X86533520Y-42366363D01*
G37*
D19*
X85561249Y-41111249D03*
D11*
G36*
X85190018Y-41022861D02*
X85472861Y-40740018D01*
X85932480Y-41199637D01*
X85649637Y-41482480D01*
X85190018Y-41022861D01*
X85190018Y-41022861D01*
G37*
D19*
X86445132Y-42914371D03*
D11*
G36*
X86073901Y-42825983D02*
X86356744Y-42543140D01*
X86816363Y-43002759D01*
X86533520Y-43285602D01*
X86073901Y-42825983D01*
X86073901Y-42825983D01*
G37*
D19*
X87364371Y-41995132D03*
D11*
G36*
X86993140Y-41906744D02*
X87275983Y-41623901D01*
X87735602Y-42083520D01*
X87452759Y-42366363D01*
X86993140Y-41906744D01*
X86993140Y-41906744D01*
G37*
D18*
X83500000Y-35164000D03*
X83500000Y-36464000D03*
X81600000Y-35814000D03*
X83500000Y-35814000D03*
X81600000Y-36464000D03*
X81600000Y-35164000D03*
D19*
X72886371Y-45551132D03*
D11*
G36*
X72515140Y-45462744D02*
X72797983Y-45179901D01*
X73257602Y-45639520D01*
X72974759Y-45922363D01*
X72515140Y-45462744D01*
X72515140Y-45462744D01*
G37*
D19*
X71967132Y-46470371D03*
D11*
G36*
X71595901Y-46381983D02*
X71878744Y-46099140D01*
X72338363Y-46558759D01*
X72055520Y-46841602D01*
X71595901Y-46381983D01*
X71595901Y-46381983D01*
G37*
D19*
X71083249Y-44667249D03*
D11*
G36*
X70712018Y-44578861D02*
X70994861Y-44296018D01*
X71454480Y-44755637D01*
X71171637Y-45038480D01*
X70712018Y-44578861D01*
X70712018Y-44578861D01*
G37*
D19*
X72426751Y-46010751D03*
D11*
G36*
X72055520Y-45922363D02*
X72338363Y-45639520D01*
X72797982Y-46099139D01*
X72515139Y-46381982D01*
X72055520Y-45922363D01*
X72055520Y-45922363D01*
G37*
D19*
X70623629Y-45126868D03*
D11*
G36*
X70252398Y-45038480D02*
X70535241Y-44755637D01*
X70994860Y-45215256D01*
X70712017Y-45498099D01*
X70252398Y-45038480D01*
X70252398Y-45038480D01*
G37*
D19*
X71542868Y-44207629D03*
D11*
G36*
X71171637Y-44119241D02*
X71454480Y-43836398D01*
X71914099Y-44296017D01*
X71631256Y-44578860D01*
X71171637Y-44119241D01*
X71171637Y-44119241D01*
G37*
D12*
X79964410Y-51480590D03*
D11*
G36*
X79909609Y-50828284D02*
X80616716Y-51535391D01*
X80019211Y-52132896D01*
X79312104Y-51425789D01*
X79909609Y-50828284D01*
X79909609Y-50828284D01*
G37*
D12*
X81325590Y-50119410D03*
D11*
G36*
X81270789Y-49467104D02*
X81977896Y-50174211D01*
X81380391Y-50771716D01*
X80673284Y-50064609D01*
X81270789Y-49467104D01*
X81270789Y-49467104D01*
G37*
D13*
X77162500Y-32512000D03*
X75237500Y-32512000D03*
D12*
X86441410Y-32847410D03*
D11*
G36*
X87093716Y-32792609D02*
X86386609Y-33499716D01*
X85789104Y-32902211D01*
X86496211Y-32195104D01*
X87093716Y-32792609D01*
X87093716Y-32792609D01*
G37*
D12*
X87802590Y-34208590D03*
D11*
G36*
X88454896Y-34153789D02*
X87747789Y-34860896D01*
X87150284Y-34263391D01*
X87857391Y-33556284D01*
X88454896Y-34153789D01*
X88454896Y-34153789D01*
G37*
D13*
X90243500Y-40386000D03*
X88318500Y-40386000D03*
D12*
X85044410Y-46400590D03*
D11*
G36*
X85099211Y-47052896D02*
X84392104Y-46345789D01*
X84989609Y-45748284D01*
X85696716Y-46455391D01*
X85099211Y-47052896D01*
X85099211Y-47052896D01*
G37*
D12*
X86405590Y-45039410D03*
D11*
G36*
X86460391Y-45691716D02*
X85753284Y-44984609D01*
X86350789Y-44387104D01*
X87057896Y-45094211D01*
X86460391Y-45691716D01*
X86460391Y-45691716D01*
G37*
D12*
X81361410Y-47797590D03*
D11*
G36*
X81306609Y-47145284D02*
X82013716Y-47852391D01*
X81416211Y-48449896D01*
X80709104Y-47742789D01*
X81306609Y-47145284D01*
X81306609Y-47145284D01*
G37*
D12*
X82722590Y-46436410D03*
D11*
G36*
X82667789Y-45784104D02*
X83374896Y-46491211D01*
X82777391Y-47088716D01*
X82070284Y-46381609D01*
X82667789Y-45784104D01*
X82667789Y-45784104D01*
G37*
D12*
X71074410Y-50119410D03*
D11*
G36*
X70422104Y-50174211D02*
X71129211Y-49467104D01*
X71726716Y-50064609D01*
X71019609Y-50771716D01*
X70422104Y-50174211D01*
X70422104Y-50174211D01*
G37*
D12*
X72435590Y-51480590D03*
D11*
G36*
X71783284Y-51535391D02*
X72490391Y-50828284D01*
X73087896Y-51425789D01*
X72380789Y-52132896D01*
X71783284Y-51535391D01*
X71783284Y-51535391D01*
G37*
D12*
X71038590Y-47797590D03*
D11*
G36*
X70386284Y-47852391D02*
X71093391Y-47145284D01*
X71690896Y-47742789D01*
X70983789Y-48449896D01*
X70386284Y-47852391D01*
X70386284Y-47852391D01*
G37*
D12*
X69677410Y-46436410D03*
D11*
G36*
X69025104Y-46491211D02*
X69732211Y-45784104D01*
X70329716Y-46381609D01*
X69622609Y-47088716D01*
X69025104Y-46491211D01*
X69025104Y-46491211D01*
G37*
D13*
X62156500Y-40386000D03*
X64081500Y-40386000D03*
D12*
X64597410Y-34208590D03*
D11*
G36*
X64652211Y-34860896D02*
X63945104Y-34153789D01*
X64542609Y-33556284D01*
X65249716Y-34263391D01*
X64652211Y-34860896D01*
X64652211Y-34860896D01*
G37*
D12*
X65958590Y-32847410D03*
D11*
G36*
X66013391Y-33499716D02*
X65306284Y-32792609D01*
X65903789Y-32195104D01*
X66610896Y-32902211D01*
X66013391Y-33499716D01*
X66013391Y-33499716D01*
G37*
D14*
X73914000Y-36522500D03*
X73914000Y-34597500D03*
D13*
X70812500Y-32004000D03*
X68887500Y-32004000D03*
M02*
