G04 #@! TF.GenerationSoftware,KiCad,Pcbnew,(5.0.0-rc2-dev-82-ga78607874)*
G04 #@! TF.CreationDate,2018-03-09T02:59:27+08:00*
G04 #@! TF.ProjectId,SMD-Heart,534D442D48656172742E6B696361645F,rev?*
G04 #@! TF.SameCoordinates,Original*
G04 #@! TF.FileFunction,Copper,L1,Top,Signal*
G04 #@! TF.FilePolarity,Positive*
%FSLAX46Y46*%
G04 Gerber Fmt 4.6, Leading zero omitted, Abs format (unit mm)*
G04 Created by KiCad (PCBNEW (5.0.0-rc2-dev-82-ga78607874)) date Fri Mar  9 02:59:27 2018*
%MOMM*%
%LPD*%
G01*
G04 APERTURE LIST*
%ADD10C,1.000000*%
%ADD11C,0.670000*%
%ADD12C,0.100000*%
%ADD13C,0.845000*%
%ADD14R,0.845000X1.000000*%
%ADD15R,1.000000X0.845000*%
%ADD16R,0.670000X1.000000*%
%ADD17R,1.000000X0.670000*%
%ADD18R,0.400000X0.650000*%
%ADD19R,0.650000X0.400000*%
%ADD20C,0.400000*%
%ADD21C,0.800000*%
%ADD22C,0.250000*%
%ADD23C,0.254000*%
G04 APERTURE END LIST*
D10*
X67183000Y-30734000D03*
D11*
X73676282Y-52721282D03*
D12*
G36*
X73085848Y-52837955D02*
X73792955Y-52130848D01*
X74266716Y-52604609D01*
X73559609Y-53311716D01*
X73085848Y-52837955D01*
X73085848Y-52837955D01*
G37*
D11*
X74913718Y-53958718D03*
D12*
G36*
X74323284Y-54075391D02*
X75030391Y-53368284D01*
X75504152Y-53842045D01*
X74797045Y-54549152D01*
X74323284Y-54075391D01*
X74323284Y-54075391D01*
G37*
D13*
X67355590Y-46400590D03*
D12*
G36*
X68007896Y-46345789D02*
X67300789Y-47052896D01*
X66703284Y-46455391D01*
X67410391Y-45748284D01*
X68007896Y-46345789D01*
X68007896Y-46345789D01*
G37*
D13*
X65994410Y-45039410D03*
D12*
G36*
X66646716Y-44984609D02*
X65939609Y-45691716D01*
X65342104Y-45094211D01*
X66049211Y-44387104D01*
X66646716Y-44984609D01*
X66646716Y-44984609D01*
G37*
D14*
X83512500Y-32004000D03*
X81587500Y-32004000D03*
X83512500Y-33528000D03*
X81587500Y-33528000D03*
D13*
X85298410Y-33990410D03*
D12*
G36*
X85950716Y-33935609D02*
X85243609Y-34642716D01*
X84646104Y-34045211D01*
X85353211Y-33338104D01*
X85950716Y-33935609D01*
X85950716Y-33935609D01*
G37*
D13*
X86659590Y-35351590D03*
D12*
G36*
X87311896Y-35296789D02*
X86604789Y-36003896D01*
X86007284Y-35406391D01*
X86714391Y-34699284D01*
X87311896Y-35296789D01*
X87311896Y-35296789D01*
G37*
D14*
X88592500Y-38735000D03*
X86667500Y-38735000D03*
D13*
X85262590Y-43896410D03*
D12*
G36*
X85317391Y-44548716D02*
X84610284Y-43841609D01*
X85207789Y-43244104D01*
X85914896Y-43951211D01*
X85317391Y-44548716D01*
X85317391Y-44548716D01*
G37*
D13*
X83901410Y-45257590D03*
D12*
G36*
X83956211Y-45909896D02*
X83249104Y-45202789D01*
X83846609Y-44605284D01*
X84553716Y-45312391D01*
X83956211Y-45909896D01*
X83956211Y-45909896D01*
G37*
D13*
X82758410Y-44114590D03*
D12*
G36*
X82813211Y-44766896D02*
X82106104Y-44059789D01*
X82703609Y-43462284D01*
X83410716Y-44169391D01*
X82813211Y-44766896D01*
X82813211Y-44766896D01*
G37*
D13*
X84119590Y-42753410D03*
D12*
G36*
X84174391Y-43405716D02*
X83467284Y-42698609D01*
X84064789Y-42101104D01*
X84771896Y-42808211D01*
X84174391Y-43405716D01*
X84174391Y-43405716D01*
G37*
D13*
X78821410Y-50337590D03*
D12*
G36*
X78766609Y-49685284D02*
X79473716Y-50392391D01*
X78876211Y-50989896D01*
X78169104Y-50282789D01*
X78766609Y-49685284D01*
X78766609Y-49685284D01*
G37*
D13*
X80182590Y-48976410D03*
D12*
G36*
X80127789Y-48324104D02*
X80834896Y-49031211D01*
X80237391Y-49628716D01*
X79530284Y-48921609D01*
X80127789Y-48324104D01*
X80127789Y-48324104D01*
G37*
D13*
X72217410Y-48976410D03*
D12*
G36*
X71565104Y-49031211D02*
X72272211Y-48324104D01*
X72869716Y-48921609D01*
X72162609Y-49628716D01*
X71565104Y-49031211D01*
X71565104Y-49031211D01*
G37*
D13*
X73578590Y-50337590D03*
D12*
G36*
X72926284Y-50392391D02*
X73633391Y-49685284D01*
X74230896Y-50282789D01*
X73523789Y-50989896D01*
X72926284Y-50392391D01*
X72926284Y-50392391D01*
G37*
D13*
X68280410Y-42753410D03*
D12*
G36*
X68932716Y-42698609D02*
X68225609Y-43405716D01*
X67628104Y-42808211D01*
X68335211Y-42101104D01*
X68932716Y-42698609D01*
X68932716Y-42698609D01*
G37*
D13*
X69641590Y-44114590D03*
D12*
G36*
X70293896Y-44059789D02*
X69586789Y-44766896D01*
X68989284Y-44169391D01*
X69696391Y-43462284D01*
X70293896Y-44059789D01*
X70293896Y-44059789D01*
G37*
D13*
X68498590Y-45257590D03*
D12*
G36*
X69150896Y-45202789D02*
X68443789Y-45909896D01*
X67846284Y-45312391D01*
X68553391Y-44605284D01*
X69150896Y-45202789D01*
X69150896Y-45202789D01*
G37*
D13*
X67137410Y-43896410D03*
D12*
G36*
X67789716Y-43841609D02*
X67082609Y-44548716D01*
X66485104Y-43951211D01*
X67192211Y-43244104D01*
X67789716Y-43841609D01*
X67789716Y-43841609D01*
G37*
D14*
X65732500Y-38735000D03*
X63807500Y-38735000D03*
D13*
X65740410Y-35351590D03*
D12*
G36*
X65795211Y-36003896D02*
X65088104Y-35296789D01*
X65685609Y-34699284D01*
X66392716Y-35406391D01*
X65795211Y-36003896D01*
X65795211Y-36003896D01*
G37*
D13*
X67101590Y-33990410D03*
D12*
G36*
X67156391Y-34642716D02*
X66449284Y-33935609D01*
X67046789Y-33338104D01*
X67753896Y-34045211D01*
X67156391Y-34642716D01*
X67156391Y-34642716D01*
G37*
D14*
X68887500Y-33528000D03*
X70812500Y-33528000D03*
D15*
X78486000Y-36522500D03*
X78486000Y-34597500D03*
D11*
X87646282Y-43798718D03*
D12*
G36*
X87762955Y-44389152D02*
X87055848Y-43682045D01*
X87529609Y-43208284D01*
X88236716Y-43915391D01*
X87762955Y-44389152D01*
X87762955Y-44389152D01*
G37*
D11*
X88883718Y-42561282D03*
D12*
G36*
X89000391Y-43151716D02*
X88293284Y-42444609D01*
X88767045Y-41970848D01*
X89474152Y-42677955D01*
X89000391Y-43151716D01*
X89000391Y-43151716D01*
G37*
D11*
X64753718Y-31766282D03*
D12*
G36*
X64870391Y-32356716D02*
X64163284Y-31649609D01*
X64637045Y-31175848D01*
X65344152Y-31882955D01*
X64870391Y-32356716D01*
X64870391Y-32356716D01*
G37*
D11*
X63516282Y-33003718D03*
D12*
G36*
X63632955Y-33594152D02*
X62925848Y-32887045D01*
X63399609Y-32413284D01*
X64106716Y-33120391D01*
X63632955Y-33594152D01*
X63632955Y-33594152D01*
G37*
D16*
X77075000Y-34163000D03*
X75325000Y-34163000D03*
X81675000Y-30480000D03*
X83425000Y-30480000D03*
D11*
X88883718Y-33003718D03*
D12*
G36*
X89474152Y-32887045D02*
X88767045Y-33594152D01*
X88293284Y-33120391D01*
X89000391Y-32413284D01*
X89474152Y-32887045D01*
X89474152Y-32887045D01*
G37*
D11*
X87646282Y-31766282D03*
D12*
G36*
X88236716Y-31649609D02*
X87529609Y-32356716D01*
X87055848Y-31882955D01*
X87762955Y-31175848D01*
X88236716Y-31649609D01*
X88236716Y-31649609D01*
G37*
D17*
X90170000Y-37225000D03*
X90170000Y-38975000D03*
D11*
X83803718Y-47641282D03*
D12*
G36*
X83687045Y-47050848D02*
X84394152Y-47757955D01*
X83920391Y-48231716D01*
X83213284Y-47524609D01*
X83687045Y-47050848D01*
X83687045Y-47050848D01*
G37*
D11*
X82566282Y-48878718D03*
D12*
G36*
X82449609Y-48288284D02*
X83156716Y-48995391D01*
X82682955Y-49469152D01*
X81975848Y-48762045D01*
X82449609Y-48288284D01*
X82449609Y-48288284D01*
G37*
D11*
X77486282Y-53958718D03*
D12*
G36*
X77369609Y-53368284D02*
X78076716Y-54075391D01*
X77602955Y-54549152D01*
X76895848Y-53842045D01*
X77369609Y-53368284D01*
X77369609Y-53368284D01*
G37*
D11*
X78723718Y-52721282D03*
D12*
G36*
X78607045Y-52130848D02*
X79314152Y-52837955D01*
X78840391Y-53311716D01*
X78133284Y-52604609D01*
X78607045Y-52130848D01*
X78607045Y-52130848D01*
G37*
D11*
X69833718Y-48878718D03*
D12*
G36*
X69243284Y-48995391D02*
X69950391Y-48288284D01*
X70424152Y-48762045D01*
X69717045Y-49469152D01*
X69243284Y-48995391D01*
X69243284Y-48995391D01*
G37*
D11*
X68596282Y-47641282D03*
D12*
G36*
X68005848Y-47757955D02*
X68712955Y-47050848D01*
X69186716Y-47524609D01*
X68479609Y-48231716D01*
X68005848Y-47757955D01*
X68005848Y-47757955D01*
G37*
D11*
X64753718Y-43798718D03*
D12*
G36*
X65344152Y-43682045D02*
X64637045Y-44389152D01*
X64163284Y-43915391D01*
X64870391Y-43208284D01*
X65344152Y-43682045D01*
X65344152Y-43682045D01*
G37*
D11*
X63516282Y-42561282D03*
D12*
G36*
X64106716Y-42444609D02*
X63399609Y-43151716D01*
X62925848Y-42677955D01*
X63632955Y-41970848D01*
X64106716Y-42444609D01*
X64106716Y-42444609D01*
G37*
D17*
X62230000Y-37225000D03*
X62230000Y-38975000D03*
D16*
X68975000Y-30480000D03*
X70725000Y-30480000D03*
D18*
X75550000Y-37526000D03*
X76850000Y-37526000D03*
X76200000Y-35626000D03*
X76200000Y-37526000D03*
X76850000Y-35626000D03*
X75550000Y-35626000D03*
D19*
X68900000Y-36464000D03*
X68900000Y-35164000D03*
X70800000Y-35814000D03*
X68900000Y-35814000D03*
X70800000Y-35164000D03*
X70800000Y-36464000D03*
D20*
X67298371Y-41570868D03*
D12*
G36*
X67386759Y-41199637D02*
X67669602Y-41482480D01*
X67209983Y-41942099D01*
X66927140Y-41659256D01*
X67386759Y-41199637D01*
X67386759Y-41199637D01*
G37*
D20*
X66379132Y-40651629D03*
D12*
G36*
X66467520Y-40280398D02*
X66750363Y-40563241D01*
X66290744Y-41022860D01*
X66007901Y-40740017D01*
X66467520Y-40280398D01*
X66467520Y-40280398D01*
G37*
D20*
X65495249Y-42454751D03*
D12*
G36*
X65583637Y-42083520D02*
X65866480Y-42366363D01*
X65406861Y-42825982D01*
X65124018Y-42543139D01*
X65583637Y-42083520D01*
X65583637Y-42083520D01*
G37*
D20*
X66838751Y-41111249D03*
D12*
G36*
X66927139Y-40740018D02*
X67209982Y-41022861D01*
X66750363Y-41482480D01*
X66467520Y-41199637D01*
X66927139Y-40740018D01*
X66927139Y-40740018D01*
G37*
D20*
X65035629Y-41995132D03*
D12*
G36*
X65124017Y-41623901D02*
X65406860Y-41906744D01*
X64947241Y-42366363D01*
X64664398Y-42083520D01*
X65124017Y-41623901D01*
X65124017Y-41623901D01*
G37*
D20*
X65954868Y-42914371D03*
D12*
G36*
X66043256Y-42543140D02*
X66326099Y-42825983D01*
X65866480Y-43285602D01*
X65583637Y-43002759D01*
X66043256Y-42543140D01*
X66043256Y-42543140D01*
G37*
D20*
X80857132Y-44207629D03*
D12*
G36*
X80768744Y-44578860D02*
X80485901Y-44296017D01*
X80945520Y-43836398D01*
X81228363Y-44119241D01*
X80768744Y-44578860D01*
X80768744Y-44578860D01*
G37*
D20*
X81776371Y-45126868D03*
D12*
G36*
X81687983Y-45498099D02*
X81405140Y-45215256D01*
X81864759Y-44755637D01*
X82147602Y-45038480D01*
X81687983Y-45498099D01*
X81687983Y-45498099D01*
G37*
D20*
X79973249Y-46010751D03*
D12*
G36*
X79884861Y-46381982D02*
X79602018Y-46099139D01*
X80061637Y-45639520D01*
X80344480Y-45922363D01*
X79884861Y-46381982D01*
X79884861Y-46381982D01*
G37*
D20*
X81316751Y-44667249D03*
D12*
G36*
X81228363Y-45038480D02*
X80945520Y-44755637D01*
X81405139Y-44296018D01*
X81687982Y-44578861D01*
X81228363Y-45038480D01*
X81228363Y-45038480D01*
G37*
D20*
X80432868Y-46470371D03*
D12*
G36*
X80344480Y-46841602D02*
X80061637Y-46558759D01*
X80521256Y-46099140D01*
X80804099Y-46381983D01*
X80344480Y-46841602D01*
X80344480Y-46841602D01*
G37*
D20*
X79513629Y-45551132D03*
D12*
G36*
X79425241Y-45922363D02*
X79142398Y-45639520D01*
X79602017Y-45179901D01*
X79884860Y-45462744D01*
X79425241Y-45922363D01*
X79425241Y-45922363D01*
G37*
D20*
X86020868Y-40651629D03*
D12*
G36*
X85649637Y-40563241D02*
X85932480Y-40280398D01*
X86392099Y-40740017D01*
X86109256Y-41022860D01*
X85649637Y-40563241D01*
X85649637Y-40563241D01*
G37*
D20*
X85101629Y-41570868D03*
D12*
G36*
X84730398Y-41482480D02*
X85013241Y-41199637D01*
X85472860Y-41659256D01*
X85190017Y-41942099D01*
X84730398Y-41482480D01*
X84730398Y-41482480D01*
G37*
D20*
X86904751Y-42454751D03*
D12*
G36*
X86533520Y-42366363D02*
X86816363Y-42083520D01*
X87275982Y-42543139D01*
X86993139Y-42825982D01*
X86533520Y-42366363D01*
X86533520Y-42366363D01*
G37*
D20*
X85561249Y-41111249D03*
D12*
G36*
X85190018Y-41022861D02*
X85472861Y-40740018D01*
X85932480Y-41199637D01*
X85649637Y-41482480D01*
X85190018Y-41022861D01*
X85190018Y-41022861D01*
G37*
D20*
X86445132Y-42914371D03*
D12*
G36*
X86073901Y-42825983D02*
X86356744Y-42543140D01*
X86816363Y-43002759D01*
X86533520Y-43285602D01*
X86073901Y-42825983D01*
X86073901Y-42825983D01*
G37*
D20*
X87364371Y-41995132D03*
D12*
G36*
X86993140Y-41906744D02*
X87275983Y-41623901D01*
X87735602Y-42083520D01*
X87452759Y-42366363D01*
X86993140Y-41906744D01*
X86993140Y-41906744D01*
G37*
D19*
X83500000Y-35164000D03*
X83500000Y-36464000D03*
X81600000Y-35814000D03*
X83500000Y-35814000D03*
X81600000Y-36464000D03*
X81600000Y-35164000D03*
D20*
X72886371Y-45551132D03*
D12*
G36*
X72515140Y-45462744D02*
X72797983Y-45179901D01*
X73257602Y-45639520D01*
X72974759Y-45922363D01*
X72515140Y-45462744D01*
X72515140Y-45462744D01*
G37*
D20*
X71967132Y-46470371D03*
D12*
G36*
X71595901Y-46381983D02*
X71878744Y-46099140D01*
X72338363Y-46558759D01*
X72055520Y-46841602D01*
X71595901Y-46381983D01*
X71595901Y-46381983D01*
G37*
D20*
X71083249Y-44667249D03*
D12*
G36*
X70712018Y-44578861D02*
X70994861Y-44296018D01*
X71454480Y-44755637D01*
X71171637Y-45038480D01*
X70712018Y-44578861D01*
X70712018Y-44578861D01*
G37*
D20*
X72426751Y-46010751D03*
D12*
G36*
X72055520Y-45922363D02*
X72338363Y-45639520D01*
X72797982Y-46099139D01*
X72515139Y-46381982D01*
X72055520Y-45922363D01*
X72055520Y-45922363D01*
G37*
D20*
X70623629Y-45126868D03*
D12*
G36*
X70252398Y-45038480D02*
X70535241Y-44755637D01*
X70994860Y-45215256D01*
X70712017Y-45498099D01*
X70252398Y-45038480D01*
X70252398Y-45038480D01*
G37*
D20*
X71542868Y-44207629D03*
D12*
G36*
X71171637Y-44119241D02*
X71454480Y-43836398D01*
X71914099Y-44296017D01*
X71631256Y-44578860D01*
X71171637Y-44119241D01*
X71171637Y-44119241D01*
G37*
D13*
X79964410Y-51480590D03*
D12*
G36*
X79909609Y-50828284D02*
X80616716Y-51535391D01*
X80019211Y-52132896D01*
X79312104Y-51425789D01*
X79909609Y-50828284D01*
X79909609Y-50828284D01*
G37*
D13*
X81325590Y-50119410D03*
D12*
G36*
X81270789Y-49467104D02*
X81977896Y-50174211D01*
X81380391Y-50771716D01*
X80673284Y-50064609D01*
X81270789Y-49467104D01*
X81270789Y-49467104D01*
G37*
D14*
X77162500Y-32512000D03*
X75237500Y-32512000D03*
D13*
X86441410Y-32847410D03*
D12*
G36*
X87093716Y-32792609D02*
X86386609Y-33499716D01*
X85789104Y-32902211D01*
X86496211Y-32195104D01*
X87093716Y-32792609D01*
X87093716Y-32792609D01*
G37*
D13*
X87802590Y-34208590D03*
D12*
G36*
X88454896Y-34153789D02*
X87747789Y-34860896D01*
X87150284Y-34263391D01*
X87857391Y-33556284D01*
X88454896Y-34153789D01*
X88454896Y-34153789D01*
G37*
D14*
X90243500Y-40386000D03*
X88318500Y-40386000D03*
D13*
X85044410Y-46400590D03*
D12*
G36*
X85099211Y-47052896D02*
X84392104Y-46345789D01*
X84989609Y-45748284D01*
X85696716Y-46455391D01*
X85099211Y-47052896D01*
X85099211Y-47052896D01*
G37*
D13*
X86405590Y-45039410D03*
D12*
G36*
X86460391Y-45691716D02*
X85753284Y-44984609D01*
X86350789Y-44387104D01*
X87057896Y-45094211D01*
X86460391Y-45691716D01*
X86460391Y-45691716D01*
G37*
D13*
X81361410Y-47797590D03*
D12*
G36*
X81306609Y-47145284D02*
X82013716Y-47852391D01*
X81416211Y-48449896D01*
X80709104Y-47742789D01*
X81306609Y-47145284D01*
X81306609Y-47145284D01*
G37*
D13*
X82722590Y-46436410D03*
D12*
G36*
X82667789Y-45784104D02*
X83374896Y-46491211D01*
X82777391Y-47088716D01*
X82070284Y-46381609D01*
X82667789Y-45784104D01*
X82667789Y-45784104D01*
G37*
D13*
X71074410Y-50119410D03*
D12*
G36*
X70422104Y-50174211D02*
X71129211Y-49467104D01*
X71726716Y-50064609D01*
X71019609Y-50771716D01*
X70422104Y-50174211D01*
X70422104Y-50174211D01*
G37*
D13*
X72435590Y-51480590D03*
D12*
G36*
X71783284Y-51535391D02*
X72490391Y-50828284D01*
X73087896Y-51425789D01*
X72380789Y-52132896D01*
X71783284Y-51535391D01*
X71783284Y-51535391D01*
G37*
D13*
X71038590Y-47797590D03*
D12*
G36*
X70386284Y-47852391D02*
X71093391Y-47145284D01*
X71690896Y-47742789D01*
X70983789Y-48449896D01*
X70386284Y-47852391D01*
X70386284Y-47852391D01*
G37*
D13*
X69677410Y-46436410D03*
D12*
G36*
X69025104Y-46491211D02*
X69732211Y-45784104D01*
X70329716Y-46381609D01*
X69622609Y-47088716D01*
X69025104Y-46491211D01*
X69025104Y-46491211D01*
G37*
D14*
X62156500Y-40386000D03*
X64081500Y-40386000D03*
D13*
X64597410Y-34208590D03*
D12*
G36*
X64652211Y-34860896D02*
X63945104Y-34153789D01*
X64542609Y-33556284D01*
X65249716Y-34263391D01*
X64652211Y-34860896D01*
X64652211Y-34860896D01*
G37*
D13*
X65958590Y-32847410D03*
D12*
G36*
X66013391Y-33499716D02*
X65306284Y-32792609D01*
X65903789Y-32195104D01*
X66610896Y-32902211D01*
X66013391Y-33499716D01*
X66013391Y-33499716D01*
G37*
D15*
X73914000Y-36522500D03*
X73914000Y-34597500D03*
D14*
X70812500Y-32004000D03*
X68887500Y-32004000D03*
D10*
X85217000Y-30734000D03*
D21*
X76200000Y-46608996D03*
X86106000Y-34798000D03*
X84836000Y-40386000D03*
X85598000Y-45847000D03*
X79375000Y-46609000D03*
X80772000Y-50673000D03*
X70739000Y-43561000D03*
X67818040Y-40767000D03*
X69088000Y-43561000D03*
X67310000Y-45212000D03*
X66929000Y-42545000D03*
X67818000Y-39624000D03*
X71628000Y-35814022D03*
X71881972Y-32766000D03*
X77978000Y-37592000D03*
X80645000Y-30480000D03*
X80645000Y-36449000D03*
X86995000Y-33401000D03*
X85090008Y-32639000D03*
X88900000Y-37465000D03*
X89535000Y-41910000D03*
X81915000Y-47244000D03*
X81661000Y-43561000D03*
X82169000Y-49276000D03*
X76835000Y-54610000D03*
X75565000Y-54610000D03*
X70231000Y-49276000D03*
X62865000Y-41910000D03*
X63500000Y-37465000D03*
X67309988Y-32639000D03*
X71755000Y-30480000D03*
X76327000Y-32512000D03*
D22*
X68900000Y-35164000D02*
X68275180Y-35164000D01*
X68275180Y-35164000D02*
X67101590Y-33990410D01*
X68900000Y-35164000D02*
X68900000Y-33540500D01*
X68900000Y-33540500D02*
X68887500Y-33528000D01*
X80952500Y-34597500D02*
X81519000Y-35164000D01*
X78486000Y-34597500D02*
X80952500Y-34597500D01*
X81519000Y-35164000D02*
X81600000Y-35164000D01*
X82175000Y-35164000D02*
X82423000Y-35412000D01*
X81600000Y-35164000D02*
X82175000Y-35164000D01*
X82423000Y-35412000D02*
X82423000Y-35941000D01*
X82423000Y-35941000D02*
X82946000Y-36464000D01*
X82946000Y-36464000D02*
X83500000Y-36464000D01*
X83512500Y-33528000D02*
X84836000Y-33528000D01*
X84836000Y-33528000D02*
X85298410Y-33990410D01*
X86445132Y-42914371D02*
X86209890Y-42679129D01*
X86209890Y-42679129D02*
X86209890Y-40840651D01*
X86209890Y-40840651D02*
X86020868Y-40651629D01*
X69475000Y-35164000D02*
X69850000Y-35539000D01*
X68900000Y-35164000D02*
X69475000Y-35164000D01*
X69850000Y-35539000D02*
X69850000Y-36089000D01*
X69850000Y-36089000D02*
X70225000Y-36464000D01*
X70225000Y-36464000D02*
X70800000Y-36464000D01*
X67298371Y-41570868D02*
X67298371Y-41771371D01*
X67298371Y-41771371D02*
X68280410Y-42753410D01*
X65035629Y-41995132D02*
X65336148Y-41694613D01*
X65336148Y-41694613D02*
X66570177Y-41694613D01*
X66570177Y-41694613D02*
X66635454Y-41759890D01*
X66635454Y-41759890D02*
X67109349Y-41759890D01*
X67109349Y-41759890D02*
X67298371Y-41570868D01*
X81776371Y-45126868D02*
X81541129Y-45362110D01*
X81541129Y-45362110D02*
X79702651Y-45362110D01*
X79702651Y-45362110D02*
X79513629Y-45551132D01*
X71542868Y-44207629D02*
X71731890Y-44396651D01*
X71731890Y-46235129D02*
X71967132Y-46470371D01*
X71731890Y-44396651D02*
X71731890Y-46235129D01*
X82925000Y-35814000D02*
X82825410Y-35714410D01*
X83500000Y-35814000D02*
X82925000Y-35814000D01*
X82825410Y-35714410D02*
X82825410Y-35073410D01*
X82825410Y-35073410D02*
X81587500Y-33835500D01*
X81587500Y-33835500D02*
X81587500Y-33528000D01*
X81587500Y-33528000D02*
X81587500Y-32004000D01*
X86659590Y-35351590D02*
X86106000Y-34798000D01*
X85561249Y-41111249D02*
X84836000Y-40386000D01*
X87802590Y-34208590D02*
X86659590Y-35351590D01*
X88592500Y-38735000D02*
X88592500Y-40112000D01*
X88592500Y-40112000D02*
X88318500Y-40386000D01*
X86904751Y-42454751D02*
X86904751Y-42210674D01*
X86715730Y-41316270D02*
X87646000Y-40386000D01*
X86904751Y-42210674D02*
X86715730Y-42021653D01*
X86715730Y-42021653D02*
X86715730Y-41316270D01*
X87646000Y-40386000D02*
X88318500Y-40386000D01*
X85044410Y-46400590D02*
X85598000Y-45847000D01*
X79973249Y-46010751D02*
X79375000Y-46609000D01*
X83901410Y-45257590D02*
X85044410Y-46400590D01*
X81534000Y-44450000D02*
X82423000Y-44450000D01*
X81316751Y-44667249D02*
X81534000Y-44450000D01*
X82423000Y-44450000D02*
X82758410Y-44114590D01*
X82722590Y-46436410D02*
X82722590Y-44150410D01*
X82722590Y-44150410D02*
X82758410Y-44114590D01*
X81325590Y-50119410D02*
X80772000Y-50673000D01*
X70739000Y-44323000D02*
X70739000Y-43561000D01*
X71083249Y-44667249D02*
X70739000Y-44323000D01*
X81325590Y-50119410D02*
X80182590Y-48976410D01*
X71074410Y-50119410D02*
X72217410Y-48976410D01*
X72727270Y-46311270D02*
X72727270Y-48466550D01*
X72426751Y-46010751D02*
X72727270Y-46311270D01*
X72641673Y-48552147D02*
X72217410Y-48976410D01*
X72727270Y-48466550D02*
X72641673Y-48552147D01*
X66838751Y-41111249D02*
X67183000Y-40767000D01*
X67252355Y-40767000D02*
X67818040Y-40767000D01*
X67183000Y-40767000D02*
X67252355Y-40767000D01*
X69641590Y-44114590D02*
X69088000Y-43561000D01*
X69677410Y-46436410D02*
X69677410Y-44150410D01*
X69677410Y-44150410D02*
X69641590Y-44114590D01*
X67355590Y-46400590D02*
X67945000Y-45811180D01*
X67945000Y-45811180D02*
X68498590Y-45257590D01*
X67909180Y-45811180D02*
X67310000Y-45212000D01*
X67945000Y-45811180D02*
X67909180Y-45811180D01*
X65795768Y-42154232D02*
X66538232Y-42154232D01*
X65495249Y-42454751D02*
X65795768Y-42154232D01*
X66538232Y-42154232D02*
X66929000Y-42545000D01*
X64081500Y-39624000D02*
X67818000Y-39624000D01*
X64081500Y-40386000D02*
X64081500Y-39624000D01*
X64081500Y-39624000D02*
X64081500Y-39009000D01*
X70800000Y-35814000D02*
X71627978Y-35814000D01*
X71627978Y-35814000D02*
X71628000Y-35814022D01*
X63807500Y-38735000D02*
X63807500Y-38657500D01*
X64081500Y-39009000D02*
X63807500Y-38735000D01*
X63680500Y-38735000D02*
X63680500Y-38657500D01*
X65740410Y-35351590D02*
X66202820Y-35814000D01*
X66202820Y-35814000D02*
X68900000Y-35814000D01*
X64597410Y-34208590D02*
X65740410Y-35351590D01*
X70812500Y-33528000D02*
X70812500Y-32766000D01*
X70812500Y-32766000D02*
X71881972Y-32766000D01*
X76200000Y-38101000D02*
X76453000Y-38354000D01*
X76200000Y-37526000D02*
X76200000Y-38101000D01*
X76453000Y-38354000D02*
X77216000Y-38354000D01*
X77216000Y-38354000D02*
X77978000Y-37592000D01*
X70812500Y-32004000D02*
X70812500Y-33528000D01*
X78666500Y-36522500D02*
X79502000Y-35687000D01*
X78486000Y-36522500D02*
X78666500Y-36522500D01*
X81026000Y-35687000D02*
X81153000Y-35814000D01*
X79502000Y-35687000D02*
X81026000Y-35687000D01*
X81153000Y-35814000D02*
X81600000Y-35814000D01*
X73914000Y-36522500D02*
X74664000Y-36522500D01*
X74664000Y-36522500D02*
X78486000Y-36522500D01*
X80645000Y-30480000D02*
X81675000Y-30480000D01*
X83500000Y-35113000D02*
X82677000Y-34290000D01*
X83500000Y-35164000D02*
X83500000Y-35113000D01*
X82677000Y-34290000D02*
X82677000Y-32766000D01*
X82677000Y-32766000D02*
X83439000Y-32004000D01*
X83439000Y-32004000D02*
X83512500Y-32004000D01*
X83425000Y-30480000D02*
X83425000Y-31916500D01*
X83425000Y-31916500D02*
X83512500Y-32004000D01*
X80660000Y-36464000D02*
X80645000Y-36449000D01*
X81600000Y-36464000D02*
X80660000Y-36464000D01*
X86441410Y-32847410D02*
X86995000Y-33401000D01*
X88773000Y-32893000D02*
X86487000Y-32893000D01*
X88883718Y-33003718D02*
X88773000Y-32893000D01*
X86487000Y-32893000D02*
X86441410Y-32847410D01*
X85870999Y-31858001D02*
X85870999Y-31858009D01*
X85490007Y-32239001D02*
X85090008Y-32639000D01*
X85870999Y-31858009D02*
X85490007Y-32239001D01*
X85962718Y-31766282D02*
X85870999Y-31858001D01*
X87646282Y-31766282D02*
X85962718Y-31766282D01*
X87630000Y-31750000D02*
X85979000Y-31750000D01*
X85979000Y-31750000D02*
X85870999Y-31858001D01*
X88900000Y-37465000D02*
X89930000Y-37465000D01*
X89930000Y-37465000D02*
X90170000Y-37225000D01*
X87364371Y-41995132D02*
X88126904Y-41232599D01*
X88126904Y-41232599D02*
X89474401Y-41232599D01*
X90243500Y-40463500D02*
X90243500Y-40386000D01*
X89474401Y-41232599D02*
X90243500Y-40463500D01*
X90170000Y-38975000D02*
X90170000Y-40312500D01*
X90170000Y-40312500D02*
X90243500Y-40386000D01*
X88883718Y-42561282D02*
X89535000Y-41910000D01*
X86995000Y-44323000D02*
X85101629Y-42429629D01*
X85101629Y-42429629D02*
X85101629Y-41570868D01*
X86405590Y-45039410D02*
X86995000Y-44450000D01*
X86995000Y-44450000D02*
X87646282Y-43798718D01*
X86995000Y-44450000D02*
X86995000Y-44323000D01*
X81361410Y-47797590D02*
X81915000Y-47244000D01*
X81014371Y-44207629D02*
X81661000Y-43561000D01*
X80857132Y-44207629D02*
X81014371Y-44207629D01*
X83693000Y-47752000D02*
X81407000Y-47752000D01*
X83803718Y-47641282D02*
X83693000Y-47752000D01*
X81407000Y-47752000D02*
X81361410Y-47797590D01*
X82566282Y-48878718D02*
X82169000Y-49276000D01*
X77486282Y-53958718D02*
X76835000Y-54610000D01*
X79964410Y-50119410D02*
X78994000Y-49149000D01*
X79964410Y-51480590D02*
X79964410Y-50119410D01*
X78994000Y-49149000D02*
X78994000Y-48768000D01*
X78994000Y-48768000D02*
X80132349Y-47629651D01*
X80132349Y-47629651D02*
X80132349Y-46770890D01*
X80132349Y-46770890D02*
X80432868Y-46470371D01*
X78723718Y-52721282D02*
X79964410Y-51480590D01*
X72435590Y-50783085D02*
X72435590Y-51480590D01*
X72886371Y-45551132D02*
X73186890Y-45851651D01*
X73186890Y-45851651D02*
X73186890Y-49368110D01*
X72435590Y-50119410D02*
X72435590Y-50783085D01*
X73186890Y-49368110D02*
X72435590Y-50119410D01*
X73676282Y-52721282D02*
X72435590Y-51480590D01*
X74913718Y-53958718D02*
X75565000Y-54610000D01*
X69833718Y-48878718D02*
X70231000Y-49276000D01*
X71038590Y-47797590D02*
X70623629Y-47382629D01*
X70623629Y-47382629D02*
X70623629Y-45126868D01*
X68707000Y-47752000D02*
X70993000Y-47752000D01*
X68596282Y-47641282D02*
X68707000Y-47752000D01*
X70993000Y-47752000D02*
X71038590Y-47797590D01*
X64753718Y-43798718D02*
X65070521Y-43798718D01*
X65070521Y-43798718D02*
X65954868Y-42914371D01*
X64753718Y-43798718D02*
X65994410Y-45039410D01*
X62865000Y-41910000D02*
X63516282Y-42561282D01*
X63500000Y-37465000D02*
X62470000Y-37465000D01*
X62470000Y-37465000D02*
X62230000Y-37225000D01*
X62230000Y-38975000D02*
X62230000Y-40312500D01*
X62230000Y-40312500D02*
X62156500Y-40386000D01*
X62484000Y-40386000D02*
X63373000Y-41275000D01*
X62156500Y-40386000D02*
X62484000Y-40386000D01*
X63373000Y-41275000D02*
X64770000Y-41275000D01*
X65393371Y-40651629D02*
X66379132Y-40651629D01*
X64770000Y-41275000D02*
X65393371Y-40651629D01*
X68325000Y-36464000D02*
X68900000Y-36464000D01*
X68267598Y-36406598D02*
X68325000Y-36464000D01*
X65616598Y-36406598D02*
X68267598Y-36406598D01*
X63516282Y-33003718D02*
X63516282Y-34306282D01*
X63516282Y-34306282D02*
X65616598Y-36406598D01*
X63627000Y-32893000D02*
X65913000Y-32893000D01*
X63516282Y-33003718D02*
X63627000Y-32893000D01*
X65913000Y-32893000D02*
X65958590Y-32847410D01*
X66437270Y-31766282D02*
X64753718Y-31766282D01*
X67309988Y-32639000D02*
X66437270Y-31766282D01*
X71755000Y-30480000D02*
X70725000Y-30480000D01*
X68887500Y-32081500D02*
X69850000Y-33044000D01*
X69850000Y-33044000D02*
X69850000Y-34339000D01*
X68887500Y-32004000D02*
X68887500Y-32081500D01*
X69850000Y-34339000D02*
X70675000Y-35164000D01*
X70675000Y-35164000D02*
X70800000Y-35164000D01*
X68975000Y-30480000D02*
X68975000Y-31916500D01*
X68975000Y-31916500D02*
X68887500Y-32004000D01*
X77162500Y-32512000D02*
X76327000Y-32512000D01*
X77075000Y-34328000D02*
X76478000Y-34925000D01*
X77075000Y-34163000D02*
X77075000Y-34328000D01*
X76478000Y-34925000D02*
X75946000Y-34925000D01*
X75550000Y-35321000D02*
X75550000Y-35626000D01*
X75946000Y-34925000D02*
X75550000Y-35321000D01*
X75550000Y-35626000D02*
X74942500Y-35626000D01*
X74942500Y-35626000D02*
X73914000Y-34597500D01*
X75237500Y-32512000D02*
X75237500Y-34075500D01*
X75237500Y-34075500D02*
X75325000Y-34163000D01*
D23*
G36*
X73014830Y-30459439D02*
X73345087Y-30604756D01*
X73668707Y-30764348D01*
X73985050Y-30937899D01*
X74293512Y-31125079D01*
X74593525Y-31325542D01*
X74682645Y-31390887D01*
X74567235Y-31413843D01*
X74357191Y-31554191D01*
X74216843Y-31764235D01*
X74167560Y-32012000D01*
X74167560Y-33012000D01*
X74216843Y-33259765D01*
X74357191Y-33469809D01*
X74378196Y-33483844D01*
X74369500Y-33527560D01*
X73414000Y-33527560D01*
X73166235Y-33576843D01*
X72956191Y-33717191D01*
X72815843Y-33927235D01*
X72766560Y-34175000D01*
X72766560Y-35020000D01*
X72815843Y-35267765D01*
X72956191Y-35477809D01*
X73079198Y-35560000D01*
X72956191Y-35642191D01*
X72815843Y-35852235D01*
X72766560Y-36100000D01*
X72766560Y-36945000D01*
X72815843Y-37192765D01*
X72956191Y-37402809D01*
X73166235Y-37543157D01*
X73414000Y-37592440D01*
X74414000Y-37592440D01*
X74661765Y-37543157D01*
X74871809Y-37402809D01*
X74874354Y-37399000D01*
X75352560Y-37399000D01*
X75352560Y-37653000D01*
X74873750Y-37653000D01*
X74715000Y-37811750D01*
X74715000Y-37977309D01*
X74811673Y-38210698D01*
X74990301Y-38389327D01*
X75223690Y-38486000D01*
X75291250Y-38486000D01*
X75422998Y-38354252D01*
X75422998Y-38486000D01*
X75543206Y-38486000D01*
X75652072Y-38648929D01*
X75715528Y-38691329D01*
X75862669Y-38838470D01*
X75905071Y-38901929D01*
X76156463Y-39069904D01*
X76378148Y-39114000D01*
X76378152Y-39114000D01*
X76452999Y-39128888D01*
X76527846Y-39114000D01*
X77141153Y-39114000D01*
X77216000Y-39128888D01*
X77290847Y-39114000D01*
X77290852Y-39114000D01*
X77512537Y-39069904D01*
X77763929Y-38901929D01*
X77806331Y-38838470D01*
X78017801Y-38627000D01*
X78183874Y-38627000D01*
X78564280Y-38469431D01*
X78855431Y-38178280D01*
X78884256Y-38108690D01*
X85610000Y-38108690D01*
X85610000Y-38449250D01*
X85768750Y-38608000D01*
X86540500Y-38608000D01*
X86540500Y-37758750D01*
X86381750Y-37600000D01*
X86118691Y-37600000D01*
X85885302Y-37696673D01*
X85706673Y-37875301D01*
X85610000Y-38108690D01*
X78884256Y-38108690D01*
X79013000Y-37797874D01*
X79013000Y-37587069D01*
X79233765Y-37543157D01*
X79443809Y-37402809D01*
X79584157Y-37192765D01*
X79633440Y-36945000D01*
X79633440Y-36711463D01*
X79767569Y-37035280D01*
X80058720Y-37326431D01*
X80439126Y-37484000D01*
X80850874Y-37484000D01*
X81231280Y-37326431D01*
X81251037Y-37306674D01*
X81275000Y-37311440D01*
X81925000Y-37311440D01*
X82172765Y-37262157D01*
X82382809Y-37121809D01*
X82523157Y-36911765D01*
X82544942Y-36802242D01*
X82636673Y-37023699D01*
X82815302Y-37202327D01*
X83048691Y-37299000D01*
X83214250Y-37299000D01*
X83373000Y-37140250D01*
X83373000Y-36661440D01*
X83627000Y-36661440D01*
X83627000Y-37140250D01*
X83785750Y-37299000D01*
X83951309Y-37299000D01*
X84184698Y-37202327D01*
X84363327Y-37023699D01*
X84460000Y-36790310D01*
X84460000Y-36722750D01*
X84301250Y-36564000D01*
X84144836Y-36564000D01*
X84282809Y-36471809D01*
X84423157Y-36261765D01*
X84428042Y-36237208D01*
X84460000Y-36205250D01*
X84460000Y-36137690D01*
X84451783Y-36117852D01*
X84472440Y-36014000D01*
X84472440Y-35614000D01*
X84447576Y-35489000D01*
X84472440Y-35364000D01*
X84472440Y-34964000D01*
X84423157Y-34716235D01*
X84339424Y-34590920D01*
X84518294Y-34590920D01*
X85118805Y-33990410D01*
X85104663Y-33976268D01*
X85284268Y-33796663D01*
X85298410Y-33810805D01*
X85312552Y-33796662D01*
X85478090Y-33962200D01*
X85228569Y-34211720D01*
X85208674Y-34259751D01*
X84697900Y-34770526D01*
X84697900Y-34995032D01*
X84883910Y-35181043D01*
X85117299Y-35277716D01*
X85184429Y-35277716D01*
X85228569Y-35384280D01*
X85386949Y-35542660D01*
X85409127Y-35654156D01*
X85549475Y-35864200D01*
X86146980Y-36461705D01*
X86357024Y-36602053D01*
X86604789Y-36651336D01*
X86852554Y-36602053D01*
X87062598Y-36461705D01*
X87769705Y-35754598D01*
X87910053Y-35544554D01*
X87924238Y-35473238D01*
X87995554Y-35459053D01*
X88205598Y-35318705D01*
X88912705Y-34611598D01*
X89053053Y-34401554D01*
X89102336Y-34153789D01*
X89098831Y-34136168D01*
X89224854Y-34051961D01*
X89560951Y-33715864D01*
X89712112Y-33964970D01*
X89885652Y-34281292D01*
X90045244Y-34604912D01*
X90190565Y-34935178D01*
X90321342Y-35271472D01*
X90437320Y-35613135D01*
X90538287Y-35959536D01*
X90607543Y-36242560D01*
X89670000Y-36242560D01*
X89422235Y-36291843D01*
X89212191Y-36432191D01*
X89190291Y-36464967D01*
X89105874Y-36430000D01*
X88694126Y-36430000D01*
X88313720Y-36587569D01*
X88022569Y-36878720D01*
X87865000Y-37259126D01*
X87865000Y-37670874D01*
X87866367Y-37674173D01*
X87712191Y-37777191D01*
X87635333Y-37892216D01*
X87628327Y-37875301D01*
X87449698Y-37696673D01*
X87216309Y-37600000D01*
X86953250Y-37600000D01*
X86794500Y-37758750D01*
X86794500Y-38608000D01*
X86814500Y-38608000D01*
X86814500Y-38862000D01*
X86794500Y-38862000D01*
X86794500Y-39711250D01*
X86953250Y-39870000D01*
X87076737Y-39870000D01*
X87055673Y-39901525D01*
X86693947Y-40263251D01*
X86588852Y-40263251D01*
X86250282Y-40601821D01*
X86070676Y-40422215D01*
X86409246Y-40083645D01*
X86409246Y-39859139D01*
X86400929Y-39850821D01*
X86540500Y-39711250D01*
X86540500Y-38862000D01*
X85768750Y-38862000D01*
X85610000Y-39020750D01*
X85610000Y-39361310D01*
X85706673Y-39594699D01*
X85771665Y-39659691D01*
X85631471Y-39717760D01*
X85422280Y-39508569D01*
X85041874Y-39351000D01*
X84630126Y-39351000D01*
X84249720Y-39508569D01*
X83958569Y-39799720D01*
X83801000Y-40180126D01*
X83801000Y-40591874D01*
X83958569Y-40972280D01*
X84167795Y-41181506D01*
X84132241Y-41234715D01*
X84086215Y-41466104D01*
X83938479Y-41466104D01*
X83705090Y-41562777D01*
X83519080Y-41748788D01*
X83519080Y-41973294D01*
X84119590Y-42573805D01*
X84133733Y-42559663D01*
X84313338Y-42739268D01*
X84299195Y-42753410D01*
X84662080Y-43116294D01*
X85262590Y-43716805D01*
X85276733Y-43702663D01*
X85456338Y-43882268D01*
X85442195Y-43896410D01*
X85456338Y-43910553D01*
X85276733Y-44090158D01*
X85262590Y-44076015D01*
X85248448Y-44090158D01*
X85068843Y-43910553D01*
X85082985Y-43896410D01*
X84482474Y-43295900D01*
X84119590Y-42933015D01*
X84105448Y-42947158D01*
X83925843Y-42767553D01*
X83939985Y-42753410D01*
X83339474Y-42152900D01*
X83114968Y-42152900D01*
X82928957Y-42338910D01*
X82832284Y-42572299D01*
X82832284Y-42824918D01*
X82839290Y-42841832D01*
X82703609Y-42814844D01*
X82455844Y-42864127D01*
X82439056Y-42875345D01*
X82247280Y-42683569D01*
X81866874Y-42526000D01*
X81455126Y-42526000D01*
X81074720Y-42683569D01*
X80783569Y-42974720D01*
X80665483Y-43259804D01*
X80487711Y-43378589D01*
X80028092Y-43838208D01*
X79887744Y-44048252D01*
X79838461Y-44296017D01*
X79887744Y-44543782D01*
X79949784Y-44636631D01*
X79728326Y-44544901D01*
X79475708Y-44544901D01*
X79242318Y-44641574D01*
X79125251Y-44758642D01*
X79125251Y-44983148D01*
X79463821Y-45321718D01*
X79284215Y-45501324D01*
X78945645Y-45162754D01*
X78721139Y-45162754D01*
X78604071Y-45279821D01*
X78507398Y-45513211D01*
X78507398Y-45765829D01*
X78579760Y-45940529D01*
X78497569Y-46022720D01*
X78340000Y-46403126D01*
X78340000Y-46814874D01*
X78497569Y-47195280D01*
X78788720Y-47486431D01*
X79080082Y-47607117D01*
X78509529Y-48177670D01*
X78446071Y-48220071D01*
X78278096Y-48471463D01*
X78234000Y-48693148D01*
X78234000Y-48693153D01*
X78219112Y-48768000D01*
X78234000Y-48842847D01*
X78234000Y-49074153D01*
X78219112Y-49149000D01*
X78234000Y-49223847D01*
X78234000Y-49223851D01*
X78249930Y-49303938D01*
X78220900Y-49332968D01*
X78220900Y-49557474D01*
X78821410Y-50157985D01*
X78835553Y-50143843D01*
X79015158Y-50323448D01*
X79001015Y-50337590D01*
X79015158Y-50351732D01*
X78835553Y-50531338D01*
X78821410Y-50517195D01*
X78275700Y-51062905D01*
X78275700Y-51287411D01*
X78337884Y-51349595D01*
X78494153Y-51505863D01*
X78359280Y-51532691D01*
X78149236Y-51673039D01*
X77675475Y-52146800D01*
X77535127Y-52356844D01*
X77485844Y-52604609D01*
X77514705Y-52749705D01*
X77369609Y-52720844D01*
X77121844Y-52770127D01*
X76911800Y-52910475D01*
X76438039Y-53384236D01*
X76297691Y-53594280D01*
X76272111Y-53722880D01*
X76248720Y-53732569D01*
X76200000Y-53781289D01*
X76151280Y-53732569D01*
X76127889Y-53722880D01*
X76102309Y-53594280D01*
X75961961Y-53384236D01*
X75488200Y-52910475D01*
X75278156Y-52770127D01*
X75030391Y-52720844D01*
X74885295Y-52749705D01*
X74914156Y-52604609D01*
X74864873Y-52356844D01*
X74724525Y-52146800D01*
X74250764Y-51673039D01*
X74040720Y-51532691D01*
X73905847Y-51505863D01*
X74062116Y-51349595D01*
X74124300Y-51287411D01*
X74124300Y-51062905D01*
X73578590Y-50517195D01*
X73564448Y-50531338D01*
X73384843Y-50351733D01*
X73398985Y-50337590D01*
X73758195Y-50337590D01*
X74303905Y-50883300D01*
X74528411Y-50883300D01*
X74590595Y-50821116D01*
X74769223Y-50642487D01*
X74865896Y-50409098D01*
X74865896Y-50156479D01*
X77534104Y-50156479D01*
X77534104Y-50409098D01*
X77630777Y-50642487D01*
X77809405Y-50821116D01*
X77871589Y-50883300D01*
X78096095Y-50883300D01*
X78641805Y-50337590D01*
X78041294Y-49737080D01*
X77816788Y-49737080D01*
X77630777Y-49923090D01*
X77534104Y-50156479D01*
X74865896Y-50156479D01*
X74769223Y-49923090D01*
X74583212Y-49737080D01*
X74358706Y-49737080D01*
X73758195Y-50337590D01*
X73398985Y-50337590D01*
X73384843Y-50323448D01*
X73564448Y-50143843D01*
X73578590Y-50157985D01*
X74179100Y-49557474D01*
X74179100Y-49332968D01*
X73993090Y-49146957D01*
X73946890Y-49127820D01*
X73946890Y-45926497D01*
X73961778Y-45851650D01*
X73946890Y-45776803D01*
X73946890Y-45776799D01*
X73902794Y-45555114D01*
X73882089Y-45524127D01*
X73855759Y-45391755D01*
X73715411Y-45181711D01*
X73255792Y-44722092D01*
X73045748Y-44581744D01*
X72797983Y-44532461D01*
X72550218Y-44581744D01*
X72457369Y-44643784D01*
X72549099Y-44422326D01*
X72549099Y-44169708D01*
X72452426Y-43936318D01*
X72335358Y-43819251D01*
X72110852Y-43819251D01*
X71772282Y-44157821D01*
X71658991Y-44044530D01*
X71752775Y-43818117D01*
X71931246Y-43639645D01*
X71931246Y-43415139D01*
X71814179Y-43298071D01*
X71737151Y-43266165D01*
X71616431Y-42974720D01*
X71325280Y-42683569D01*
X70944874Y-42526000D01*
X70533126Y-42526000D01*
X70152720Y-42683569D01*
X69960944Y-42875345D01*
X69944156Y-42864127D01*
X69832660Y-42841949D01*
X69674280Y-42683569D01*
X69567716Y-42639429D01*
X69567716Y-42572299D01*
X69471043Y-42338910D01*
X69285032Y-42152900D01*
X69060526Y-42152900D01*
X68549751Y-42663674D01*
X68501720Y-42683569D01*
X68210569Y-42974720D01*
X68190674Y-43022751D01*
X67917526Y-43295900D01*
X67317015Y-43896410D01*
X67331158Y-43910553D01*
X67151553Y-44090158D01*
X67137410Y-44076015D01*
X67123268Y-44090158D01*
X66943663Y-43910553D01*
X66957805Y-43896410D01*
X66943663Y-43882268D01*
X67123268Y-43702663D01*
X67137410Y-43716805D01*
X67372743Y-43481472D01*
X67515280Y-43422431D01*
X67806431Y-43131280D01*
X67865472Y-42988743D01*
X68100805Y-42753410D01*
X68086663Y-42739268D01*
X68266268Y-42559663D01*
X68280410Y-42573805D01*
X68880920Y-41973294D01*
X68880920Y-41748788D01*
X68694910Y-41562777D01*
X68547170Y-41501581D01*
X68695471Y-41353280D01*
X68853040Y-40972874D01*
X68853040Y-40561126D01*
X68701573Y-40195452D01*
X68853000Y-39829874D01*
X68853000Y-39418126D01*
X68695431Y-39037720D01*
X68404280Y-38746569D01*
X68023874Y-38589000D01*
X67612126Y-38589000D01*
X67231720Y-38746569D01*
X67114289Y-38864000D01*
X66633250Y-38864000D01*
X66631250Y-38862000D01*
X65859500Y-38862000D01*
X65859500Y-38864000D01*
X65605500Y-38864000D01*
X65605500Y-38862000D01*
X65585500Y-38862000D01*
X65585500Y-38608000D01*
X65605500Y-38608000D01*
X65605500Y-37758750D01*
X65859500Y-37758750D01*
X65859500Y-38608000D01*
X66631250Y-38608000D01*
X66790000Y-38449250D01*
X66790000Y-38108690D01*
X66693327Y-37875301D01*
X66514698Y-37696673D01*
X66281309Y-37600000D01*
X66018250Y-37600000D01*
X65859500Y-37758750D01*
X65605500Y-37758750D01*
X65446750Y-37600000D01*
X65183691Y-37600000D01*
X64950302Y-37696673D01*
X64771673Y-37875301D01*
X64764667Y-37892216D01*
X64687809Y-37777191D01*
X64533633Y-37674173D01*
X64535000Y-37670874D01*
X64535000Y-37259126D01*
X64377431Y-36878720D01*
X64086280Y-36587569D01*
X63705874Y-36430000D01*
X63294126Y-36430000D01*
X63209709Y-36464967D01*
X63187809Y-36432191D01*
X62977765Y-36291843D01*
X62730000Y-36242560D01*
X61792457Y-36242560D01*
X61861714Y-35959531D01*
X61962680Y-35613135D01*
X62078658Y-35271472D01*
X62209439Y-34935170D01*
X62354756Y-34604913D01*
X62514348Y-34281293D01*
X62687899Y-33964950D01*
X62756283Y-33852258D01*
X62756283Y-34231431D01*
X62741394Y-34306282D01*
X62756283Y-34381134D01*
X62764329Y-34421585D01*
X62800379Y-34602819D01*
X62916678Y-34776872D01*
X62968354Y-34854211D01*
X63031810Y-34896611D01*
X65026271Y-36891074D01*
X65068669Y-36954527D01*
X65132122Y-36996925D01*
X65132124Y-36996927D01*
X65206407Y-37046561D01*
X65320061Y-37122502D01*
X65541746Y-37166598D01*
X65541750Y-37166598D01*
X65616597Y-37181486D01*
X65691444Y-37166598D01*
X68008549Y-37166598D01*
X68028463Y-37179904D01*
X68250148Y-37224000D01*
X68250152Y-37224000D01*
X68278597Y-37229658D01*
X68327235Y-37262157D01*
X68575000Y-37311440D01*
X69225000Y-37311440D01*
X69472765Y-37262157D01*
X69682809Y-37121809D01*
X69823157Y-36911765D01*
X69844942Y-36802242D01*
X69936673Y-37023699D01*
X70115302Y-37202327D01*
X70348691Y-37299000D01*
X70514250Y-37299000D01*
X70673000Y-37140250D01*
X70673000Y-36661440D01*
X70927000Y-36661440D01*
X70927000Y-37140250D01*
X71085750Y-37299000D01*
X71251309Y-37299000D01*
X71484698Y-37202327D01*
X71663327Y-37023699D01*
X71735681Y-36849022D01*
X71833874Y-36849022D01*
X72214280Y-36691453D01*
X72505431Y-36400302D01*
X72663000Y-36019896D01*
X72663000Y-35608148D01*
X72505431Y-35227742D01*
X72214280Y-34936591D01*
X71833874Y-34779022D01*
X71735646Y-34779022D01*
X71723157Y-34716235D01*
X71607346Y-34542914D01*
X71692809Y-34485809D01*
X71833157Y-34275765D01*
X71882440Y-34028000D01*
X71882440Y-33801000D01*
X72087846Y-33801000D01*
X72468252Y-33643431D01*
X72759403Y-33352280D01*
X72916972Y-32971874D01*
X72916972Y-32560126D01*
X72759403Y-32179720D01*
X72468252Y-31888569D01*
X72087846Y-31731000D01*
X71882440Y-31731000D01*
X71882440Y-31515000D01*
X71960874Y-31515000D01*
X72341280Y-31357431D01*
X72632431Y-31066280D01*
X72790000Y-30685874D01*
X72790000Y-30372007D01*
X73014830Y-30459439D01*
X73014830Y-30459439D01*
G37*
X73014830Y-30459439D02*
X73345087Y-30604756D01*
X73668707Y-30764348D01*
X73985050Y-30937899D01*
X74293512Y-31125079D01*
X74593525Y-31325542D01*
X74682645Y-31390887D01*
X74567235Y-31413843D01*
X74357191Y-31554191D01*
X74216843Y-31764235D01*
X74167560Y-32012000D01*
X74167560Y-33012000D01*
X74216843Y-33259765D01*
X74357191Y-33469809D01*
X74378196Y-33483844D01*
X74369500Y-33527560D01*
X73414000Y-33527560D01*
X73166235Y-33576843D01*
X72956191Y-33717191D01*
X72815843Y-33927235D01*
X72766560Y-34175000D01*
X72766560Y-35020000D01*
X72815843Y-35267765D01*
X72956191Y-35477809D01*
X73079198Y-35560000D01*
X72956191Y-35642191D01*
X72815843Y-35852235D01*
X72766560Y-36100000D01*
X72766560Y-36945000D01*
X72815843Y-37192765D01*
X72956191Y-37402809D01*
X73166235Y-37543157D01*
X73414000Y-37592440D01*
X74414000Y-37592440D01*
X74661765Y-37543157D01*
X74871809Y-37402809D01*
X74874354Y-37399000D01*
X75352560Y-37399000D01*
X75352560Y-37653000D01*
X74873750Y-37653000D01*
X74715000Y-37811750D01*
X74715000Y-37977309D01*
X74811673Y-38210698D01*
X74990301Y-38389327D01*
X75223690Y-38486000D01*
X75291250Y-38486000D01*
X75422998Y-38354252D01*
X75422998Y-38486000D01*
X75543206Y-38486000D01*
X75652072Y-38648929D01*
X75715528Y-38691329D01*
X75862669Y-38838470D01*
X75905071Y-38901929D01*
X76156463Y-39069904D01*
X76378148Y-39114000D01*
X76378152Y-39114000D01*
X76452999Y-39128888D01*
X76527846Y-39114000D01*
X77141153Y-39114000D01*
X77216000Y-39128888D01*
X77290847Y-39114000D01*
X77290852Y-39114000D01*
X77512537Y-39069904D01*
X77763929Y-38901929D01*
X77806331Y-38838470D01*
X78017801Y-38627000D01*
X78183874Y-38627000D01*
X78564280Y-38469431D01*
X78855431Y-38178280D01*
X78884256Y-38108690D01*
X85610000Y-38108690D01*
X85610000Y-38449250D01*
X85768750Y-38608000D01*
X86540500Y-38608000D01*
X86540500Y-37758750D01*
X86381750Y-37600000D01*
X86118691Y-37600000D01*
X85885302Y-37696673D01*
X85706673Y-37875301D01*
X85610000Y-38108690D01*
X78884256Y-38108690D01*
X79013000Y-37797874D01*
X79013000Y-37587069D01*
X79233765Y-37543157D01*
X79443809Y-37402809D01*
X79584157Y-37192765D01*
X79633440Y-36945000D01*
X79633440Y-36711463D01*
X79767569Y-37035280D01*
X80058720Y-37326431D01*
X80439126Y-37484000D01*
X80850874Y-37484000D01*
X81231280Y-37326431D01*
X81251037Y-37306674D01*
X81275000Y-37311440D01*
X81925000Y-37311440D01*
X82172765Y-37262157D01*
X82382809Y-37121809D01*
X82523157Y-36911765D01*
X82544942Y-36802242D01*
X82636673Y-37023699D01*
X82815302Y-37202327D01*
X83048691Y-37299000D01*
X83214250Y-37299000D01*
X83373000Y-37140250D01*
X83373000Y-36661440D01*
X83627000Y-36661440D01*
X83627000Y-37140250D01*
X83785750Y-37299000D01*
X83951309Y-37299000D01*
X84184698Y-37202327D01*
X84363327Y-37023699D01*
X84460000Y-36790310D01*
X84460000Y-36722750D01*
X84301250Y-36564000D01*
X84144836Y-36564000D01*
X84282809Y-36471809D01*
X84423157Y-36261765D01*
X84428042Y-36237208D01*
X84460000Y-36205250D01*
X84460000Y-36137690D01*
X84451783Y-36117852D01*
X84472440Y-36014000D01*
X84472440Y-35614000D01*
X84447576Y-35489000D01*
X84472440Y-35364000D01*
X84472440Y-34964000D01*
X84423157Y-34716235D01*
X84339424Y-34590920D01*
X84518294Y-34590920D01*
X85118805Y-33990410D01*
X85104663Y-33976268D01*
X85284268Y-33796663D01*
X85298410Y-33810805D01*
X85312552Y-33796662D01*
X85478090Y-33962200D01*
X85228569Y-34211720D01*
X85208674Y-34259751D01*
X84697900Y-34770526D01*
X84697900Y-34995032D01*
X84883910Y-35181043D01*
X85117299Y-35277716D01*
X85184429Y-35277716D01*
X85228569Y-35384280D01*
X85386949Y-35542660D01*
X85409127Y-35654156D01*
X85549475Y-35864200D01*
X86146980Y-36461705D01*
X86357024Y-36602053D01*
X86604789Y-36651336D01*
X86852554Y-36602053D01*
X87062598Y-36461705D01*
X87769705Y-35754598D01*
X87910053Y-35544554D01*
X87924238Y-35473238D01*
X87995554Y-35459053D01*
X88205598Y-35318705D01*
X88912705Y-34611598D01*
X89053053Y-34401554D01*
X89102336Y-34153789D01*
X89098831Y-34136168D01*
X89224854Y-34051961D01*
X89560951Y-33715864D01*
X89712112Y-33964970D01*
X89885652Y-34281292D01*
X90045244Y-34604912D01*
X90190565Y-34935178D01*
X90321342Y-35271472D01*
X90437320Y-35613135D01*
X90538287Y-35959536D01*
X90607543Y-36242560D01*
X89670000Y-36242560D01*
X89422235Y-36291843D01*
X89212191Y-36432191D01*
X89190291Y-36464967D01*
X89105874Y-36430000D01*
X88694126Y-36430000D01*
X88313720Y-36587569D01*
X88022569Y-36878720D01*
X87865000Y-37259126D01*
X87865000Y-37670874D01*
X87866367Y-37674173D01*
X87712191Y-37777191D01*
X87635333Y-37892216D01*
X87628327Y-37875301D01*
X87449698Y-37696673D01*
X87216309Y-37600000D01*
X86953250Y-37600000D01*
X86794500Y-37758750D01*
X86794500Y-38608000D01*
X86814500Y-38608000D01*
X86814500Y-38862000D01*
X86794500Y-38862000D01*
X86794500Y-39711250D01*
X86953250Y-39870000D01*
X87076737Y-39870000D01*
X87055673Y-39901525D01*
X86693947Y-40263251D01*
X86588852Y-40263251D01*
X86250282Y-40601821D01*
X86070676Y-40422215D01*
X86409246Y-40083645D01*
X86409246Y-39859139D01*
X86400929Y-39850821D01*
X86540500Y-39711250D01*
X86540500Y-38862000D01*
X85768750Y-38862000D01*
X85610000Y-39020750D01*
X85610000Y-39361310D01*
X85706673Y-39594699D01*
X85771665Y-39659691D01*
X85631471Y-39717760D01*
X85422280Y-39508569D01*
X85041874Y-39351000D01*
X84630126Y-39351000D01*
X84249720Y-39508569D01*
X83958569Y-39799720D01*
X83801000Y-40180126D01*
X83801000Y-40591874D01*
X83958569Y-40972280D01*
X84167795Y-41181506D01*
X84132241Y-41234715D01*
X84086215Y-41466104D01*
X83938479Y-41466104D01*
X83705090Y-41562777D01*
X83519080Y-41748788D01*
X83519080Y-41973294D01*
X84119590Y-42573805D01*
X84133733Y-42559663D01*
X84313338Y-42739268D01*
X84299195Y-42753410D01*
X84662080Y-43116294D01*
X85262590Y-43716805D01*
X85276733Y-43702663D01*
X85456338Y-43882268D01*
X85442195Y-43896410D01*
X85456338Y-43910553D01*
X85276733Y-44090158D01*
X85262590Y-44076015D01*
X85248448Y-44090158D01*
X85068843Y-43910553D01*
X85082985Y-43896410D01*
X84482474Y-43295900D01*
X84119590Y-42933015D01*
X84105448Y-42947158D01*
X83925843Y-42767553D01*
X83939985Y-42753410D01*
X83339474Y-42152900D01*
X83114968Y-42152900D01*
X82928957Y-42338910D01*
X82832284Y-42572299D01*
X82832284Y-42824918D01*
X82839290Y-42841832D01*
X82703609Y-42814844D01*
X82455844Y-42864127D01*
X82439056Y-42875345D01*
X82247280Y-42683569D01*
X81866874Y-42526000D01*
X81455126Y-42526000D01*
X81074720Y-42683569D01*
X80783569Y-42974720D01*
X80665483Y-43259804D01*
X80487711Y-43378589D01*
X80028092Y-43838208D01*
X79887744Y-44048252D01*
X79838461Y-44296017D01*
X79887744Y-44543782D01*
X79949784Y-44636631D01*
X79728326Y-44544901D01*
X79475708Y-44544901D01*
X79242318Y-44641574D01*
X79125251Y-44758642D01*
X79125251Y-44983148D01*
X79463821Y-45321718D01*
X79284215Y-45501324D01*
X78945645Y-45162754D01*
X78721139Y-45162754D01*
X78604071Y-45279821D01*
X78507398Y-45513211D01*
X78507398Y-45765829D01*
X78579760Y-45940529D01*
X78497569Y-46022720D01*
X78340000Y-46403126D01*
X78340000Y-46814874D01*
X78497569Y-47195280D01*
X78788720Y-47486431D01*
X79080082Y-47607117D01*
X78509529Y-48177670D01*
X78446071Y-48220071D01*
X78278096Y-48471463D01*
X78234000Y-48693148D01*
X78234000Y-48693153D01*
X78219112Y-48768000D01*
X78234000Y-48842847D01*
X78234000Y-49074153D01*
X78219112Y-49149000D01*
X78234000Y-49223847D01*
X78234000Y-49223851D01*
X78249930Y-49303938D01*
X78220900Y-49332968D01*
X78220900Y-49557474D01*
X78821410Y-50157985D01*
X78835553Y-50143843D01*
X79015158Y-50323448D01*
X79001015Y-50337590D01*
X79015158Y-50351732D01*
X78835553Y-50531338D01*
X78821410Y-50517195D01*
X78275700Y-51062905D01*
X78275700Y-51287411D01*
X78337884Y-51349595D01*
X78494153Y-51505863D01*
X78359280Y-51532691D01*
X78149236Y-51673039D01*
X77675475Y-52146800D01*
X77535127Y-52356844D01*
X77485844Y-52604609D01*
X77514705Y-52749705D01*
X77369609Y-52720844D01*
X77121844Y-52770127D01*
X76911800Y-52910475D01*
X76438039Y-53384236D01*
X76297691Y-53594280D01*
X76272111Y-53722880D01*
X76248720Y-53732569D01*
X76200000Y-53781289D01*
X76151280Y-53732569D01*
X76127889Y-53722880D01*
X76102309Y-53594280D01*
X75961961Y-53384236D01*
X75488200Y-52910475D01*
X75278156Y-52770127D01*
X75030391Y-52720844D01*
X74885295Y-52749705D01*
X74914156Y-52604609D01*
X74864873Y-52356844D01*
X74724525Y-52146800D01*
X74250764Y-51673039D01*
X74040720Y-51532691D01*
X73905847Y-51505863D01*
X74062116Y-51349595D01*
X74124300Y-51287411D01*
X74124300Y-51062905D01*
X73578590Y-50517195D01*
X73564448Y-50531338D01*
X73384843Y-50351733D01*
X73398985Y-50337590D01*
X73758195Y-50337590D01*
X74303905Y-50883300D01*
X74528411Y-50883300D01*
X74590595Y-50821116D01*
X74769223Y-50642487D01*
X74865896Y-50409098D01*
X74865896Y-50156479D01*
X77534104Y-50156479D01*
X77534104Y-50409098D01*
X77630777Y-50642487D01*
X77809405Y-50821116D01*
X77871589Y-50883300D01*
X78096095Y-50883300D01*
X78641805Y-50337590D01*
X78041294Y-49737080D01*
X77816788Y-49737080D01*
X77630777Y-49923090D01*
X77534104Y-50156479D01*
X74865896Y-50156479D01*
X74769223Y-49923090D01*
X74583212Y-49737080D01*
X74358706Y-49737080D01*
X73758195Y-50337590D01*
X73398985Y-50337590D01*
X73384843Y-50323448D01*
X73564448Y-50143843D01*
X73578590Y-50157985D01*
X74179100Y-49557474D01*
X74179100Y-49332968D01*
X73993090Y-49146957D01*
X73946890Y-49127820D01*
X73946890Y-45926497D01*
X73961778Y-45851650D01*
X73946890Y-45776803D01*
X73946890Y-45776799D01*
X73902794Y-45555114D01*
X73882089Y-45524127D01*
X73855759Y-45391755D01*
X73715411Y-45181711D01*
X73255792Y-44722092D01*
X73045748Y-44581744D01*
X72797983Y-44532461D01*
X72550218Y-44581744D01*
X72457369Y-44643784D01*
X72549099Y-44422326D01*
X72549099Y-44169708D01*
X72452426Y-43936318D01*
X72335358Y-43819251D01*
X72110852Y-43819251D01*
X71772282Y-44157821D01*
X71658991Y-44044530D01*
X71752775Y-43818117D01*
X71931246Y-43639645D01*
X71931246Y-43415139D01*
X71814179Y-43298071D01*
X71737151Y-43266165D01*
X71616431Y-42974720D01*
X71325280Y-42683569D01*
X70944874Y-42526000D01*
X70533126Y-42526000D01*
X70152720Y-42683569D01*
X69960944Y-42875345D01*
X69944156Y-42864127D01*
X69832660Y-42841949D01*
X69674280Y-42683569D01*
X69567716Y-42639429D01*
X69567716Y-42572299D01*
X69471043Y-42338910D01*
X69285032Y-42152900D01*
X69060526Y-42152900D01*
X68549751Y-42663674D01*
X68501720Y-42683569D01*
X68210569Y-42974720D01*
X68190674Y-43022751D01*
X67917526Y-43295900D01*
X67317015Y-43896410D01*
X67331158Y-43910553D01*
X67151553Y-44090158D01*
X67137410Y-44076015D01*
X67123268Y-44090158D01*
X66943663Y-43910553D01*
X66957805Y-43896410D01*
X66943663Y-43882268D01*
X67123268Y-43702663D01*
X67137410Y-43716805D01*
X67372743Y-43481472D01*
X67515280Y-43422431D01*
X67806431Y-43131280D01*
X67865472Y-42988743D01*
X68100805Y-42753410D01*
X68086663Y-42739268D01*
X68266268Y-42559663D01*
X68280410Y-42573805D01*
X68880920Y-41973294D01*
X68880920Y-41748788D01*
X68694910Y-41562777D01*
X68547170Y-41501581D01*
X68695471Y-41353280D01*
X68853040Y-40972874D01*
X68853040Y-40561126D01*
X68701573Y-40195452D01*
X68853000Y-39829874D01*
X68853000Y-39418126D01*
X68695431Y-39037720D01*
X68404280Y-38746569D01*
X68023874Y-38589000D01*
X67612126Y-38589000D01*
X67231720Y-38746569D01*
X67114289Y-38864000D01*
X66633250Y-38864000D01*
X66631250Y-38862000D01*
X65859500Y-38862000D01*
X65859500Y-38864000D01*
X65605500Y-38864000D01*
X65605500Y-38862000D01*
X65585500Y-38862000D01*
X65585500Y-38608000D01*
X65605500Y-38608000D01*
X65605500Y-37758750D01*
X65859500Y-37758750D01*
X65859500Y-38608000D01*
X66631250Y-38608000D01*
X66790000Y-38449250D01*
X66790000Y-38108690D01*
X66693327Y-37875301D01*
X66514698Y-37696673D01*
X66281309Y-37600000D01*
X66018250Y-37600000D01*
X65859500Y-37758750D01*
X65605500Y-37758750D01*
X65446750Y-37600000D01*
X65183691Y-37600000D01*
X64950302Y-37696673D01*
X64771673Y-37875301D01*
X64764667Y-37892216D01*
X64687809Y-37777191D01*
X64533633Y-37674173D01*
X64535000Y-37670874D01*
X64535000Y-37259126D01*
X64377431Y-36878720D01*
X64086280Y-36587569D01*
X63705874Y-36430000D01*
X63294126Y-36430000D01*
X63209709Y-36464967D01*
X63187809Y-36432191D01*
X62977765Y-36291843D01*
X62730000Y-36242560D01*
X61792457Y-36242560D01*
X61861714Y-35959531D01*
X61962680Y-35613135D01*
X62078658Y-35271472D01*
X62209439Y-34935170D01*
X62354756Y-34604913D01*
X62514348Y-34281293D01*
X62687899Y-33964950D01*
X62756283Y-33852258D01*
X62756283Y-34231431D01*
X62741394Y-34306282D01*
X62756283Y-34381134D01*
X62764329Y-34421585D01*
X62800379Y-34602819D01*
X62916678Y-34776872D01*
X62968354Y-34854211D01*
X63031810Y-34896611D01*
X65026271Y-36891074D01*
X65068669Y-36954527D01*
X65132122Y-36996925D01*
X65132124Y-36996927D01*
X65206407Y-37046561D01*
X65320061Y-37122502D01*
X65541746Y-37166598D01*
X65541750Y-37166598D01*
X65616597Y-37181486D01*
X65691444Y-37166598D01*
X68008549Y-37166598D01*
X68028463Y-37179904D01*
X68250148Y-37224000D01*
X68250152Y-37224000D01*
X68278597Y-37229658D01*
X68327235Y-37262157D01*
X68575000Y-37311440D01*
X69225000Y-37311440D01*
X69472765Y-37262157D01*
X69682809Y-37121809D01*
X69823157Y-36911765D01*
X69844942Y-36802242D01*
X69936673Y-37023699D01*
X70115302Y-37202327D01*
X70348691Y-37299000D01*
X70514250Y-37299000D01*
X70673000Y-37140250D01*
X70673000Y-36661440D01*
X70927000Y-36661440D01*
X70927000Y-37140250D01*
X71085750Y-37299000D01*
X71251309Y-37299000D01*
X71484698Y-37202327D01*
X71663327Y-37023699D01*
X71735681Y-36849022D01*
X71833874Y-36849022D01*
X72214280Y-36691453D01*
X72505431Y-36400302D01*
X72663000Y-36019896D01*
X72663000Y-35608148D01*
X72505431Y-35227742D01*
X72214280Y-34936591D01*
X71833874Y-34779022D01*
X71735646Y-34779022D01*
X71723157Y-34716235D01*
X71607346Y-34542914D01*
X71692809Y-34485809D01*
X71833157Y-34275765D01*
X71882440Y-34028000D01*
X71882440Y-33801000D01*
X72087846Y-33801000D01*
X72468252Y-33643431D01*
X72759403Y-33352280D01*
X72916972Y-32971874D01*
X72916972Y-32560126D01*
X72759403Y-32179720D01*
X72468252Y-31888569D01*
X72087846Y-31731000D01*
X71882440Y-31731000D01*
X71882440Y-31515000D01*
X71960874Y-31515000D01*
X72341280Y-31357431D01*
X72632431Y-31066280D01*
X72790000Y-30685874D01*
X72790000Y-30372007D01*
X73014830Y-30459439D01*
G36*
X67101590Y-33810805D02*
X67115733Y-33796663D01*
X67295338Y-33976268D01*
X67281195Y-33990410D01*
X67881706Y-34590920D01*
X68050054Y-34590920D01*
X68036673Y-34604301D01*
X67940000Y-34837690D01*
X67940000Y-34905250D01*
X68071748Y-35036998D01*
X67940000Y-35036998D01*
X67940000Y-35054000D01*
X67643132Y-35054000D01*
X67702100Y-34995032D01*
X67702100Y-34770526D01*
X67101590Y-34170015D01*
X67087448Y-34184158D01*
X66907843Y-34004553D01*
X66921985Y-33990410D01*
X66907843Y-33976268D01*
X67087448Y-33796662D01*
X67101590Y-33810805D01*
X67101590Y-33810805D01*
G37*
X67101590Y-33810805D02*
X67115733Y-33796663D01*
X67295338Y-33976268D01*
X67281195Y-33990410D01*
X67881706Y-34590920D01*
X68050054Y-34590920D01*
X68036673Y-34604301D01*
X67940000Y-34837690D01*
X67940000Y-34905250D01*
X68071748Y-35036998D01*
X67940000Y-35036998D01*
X67940000Y-35054000D01*
X67643132Y-35054000D01*
X67702100Y-34995032D01*
X67702100Y-34770526D01*
X67101590Y-34170015D01*
X67087448Y-34184158D01*
X66907843Y-34004553D01*
X66921985Y-33990410D01*
X66907843Y-33976268D01*
X67087448Y-33796662D01*
X67101590Y-33810805D01*
G36*
X69014500Y-33401000D02*
X69034500Y-33401000D01*
X69034500Y-33655000D01*
X69014500Y-33655000D01*
X69014500Y-34504250D01*
X69027000Y-34516750D01*
X69027000Y-34966560D01*
X68773000Y-34966560D01*
X68773000Y-34487750D01*
X68760500Y-34475250D01*
X68760500Y-33655000D01*
X68740500Y-33655000D01*
X68740500Y-33401000D01*
X68760500Y-33401000D01*
X68760500Y-33381000D01*
X69014500Y-33381000D01*
X69014500Y-33401000D01*
X69014500Y-33401000D01*
G37*
X69014500Y-33401000D02*
X69034500Y-33401000D01*
X69034500Y-33655000D01*
X69014500Y-33655000D01*
X69014500Y-34504250D01*
X69027000Y-34516750D01*
X69027000Y-34966560D01*
X68773000Y-34966560D01*
X68773000Y-34487750D01*
X68760500Y-34475250D01*
X68760500Y-33655000D01*
X68740500Y-33655000D01*
X68740500Y-33401000D01*
X68760500Y-33401000D01*
X68760500Y-33381000D01*
X69014500Y-33381000D01*
X69014500Y-33401000D01*
G36*
X79610000Y-30685874D02*
X79767569Y-31066280D01*
X80058720Y-31357431D01*
X80439126Y-31515000D01*
X80517560Y-31515000D01*
X80517560Y-32504000D01*
X80566843Y-32751765D01*
X80576355Y-32766000D01*
X80566843Y-32780235D01*
X80517560Y-33028000D01*
X80517560Y-34028000D01*
X80566843Y-34275765D01*
X80707191Y-34485809D01*
X80795895Y-34545079D01*
X80736673Y-34604301D01*
X80640000Y-34837690D01*
X80640000Y-34905250D01*
X80661750Y-34927000D01*
X79621000Y-34927000D01*
X79621000Y-34883250D01*
X79462250Y-34724500D01*
X78613000Y-34724500D01*
X78613000Y-34744500D01*
X78359000Y-34744500D01*
X78359000Y-34724500D01*
X78339000Y-34724500D01*
X78339000Y-34470500D01*
X78359000Y-34470500D01*
X78359000Y-33698750D01*
X78613000Y-33698750D01*
X78613000Y-34470500D01*
X79462250Y-34470500D01*
X79621000Y-34311750D01*
X79621000Y-34048691D01*
X79524327Y-33815302D01*
X79345699Y-33636673D01*
X79112310Y-33540000D01*
X78771750Y-33540000D01*
X78613000Y-33698750D01*
X78359000Y-33698750D01*
X78200250Y-33540000D01*
X78032974Y-33540000D01*
X78021804Y-33483844D01*
X78042809Y-33469809D01*
X78183157Y-33259765D01*
X78232440Y-33012000D01*
X78232440Y-32012000D01*
X78183157Y-31764235D01*
X78042809Y-31554191D01*
X77832765Y-31413843D01*
X77717355Y-31390887D01*
X77806474Y-31325542D01*
X78106504Y-31125070D01*
X78414970Y-30937888D01*
X78731292Y-30764348D01*
X79054912Y-30604756D01*
X79385178Y-30459435D01*
X79610000Y-30372007D01*
X79610000Y-30685874D01*
X79610000Y-30685874D01*
G37*
X79610000Y-30685874D02*
X79767569Y-31066280D01*
X80058720Y-31357431D01*
X80439126Y-31515000D01*
X80517560Y-31515000D01*
X80517560Y-32504000D01*
X80566843Y-32751765D01*
X80576355Y-32766000D01*
X80566843Y-32780235D01*
X80517560Y-33028000D01*
X80517560Y-34028000D01*
X80566843Y-34275765D01*
X80707191Y-34485809D01*
X80795895Y-34545079D01*
X80736673Y-34604301D01*
X80640000Y-34837690D01*
X80640000Y-34905250D01*
X80661750Y-34927000D01*
X79621000Y-34927000D01*
X79621000Y-34883250D01*
X79462250Y-34724500D01*
X78613000Y-34724500D01*
X78613000Y-34744500D01*
X78359000Y-34744500D01*
X78359000Y-34724500D01*
X78339000Y-34724500D01*
X78339000Y-34470500D01*
X78359000Y-34470500D01*
X78359000Y-33698750D01*
X78613000Y-33698750D01*
X78613000Y-34470500D01*
X79462250Y-34470500D01*
X79621000Y-34311750D01*
X79621000Y-34048691D01*
X79524327Y-33815302D01*
X79345699Y-33636673D01*
X79112310Y-33540000D01*
X78771750Y-33540000D01*
X78613000Y-33698750D01*
X78359000Y-33698750D01*
X78200250Y-33540000D01*
X78032974Y-33540000D01*
X78021804Y-33483844D01*
X78042809Y-33469809D01*
X78183157Y-33259765D01*
X78232440Y-33012000D01*
X78232440Y-32012000D01*
X78183157Y-31764235D01*
X78042809Y-31554191D01*
X77832765Y-31413843D01*
X77717355Y-31390887D01*
X77806474Y-31325542D01*
X78106504Y-31125070D01*
X78414970Y-30937888D01*
X78731292Y-30764348D01*
X79054912Y-30604756D01*
X79385178Y-30459435D01*
X79610000Y-30372007D01*
X79610000Y-30685874D01*
G36*
X83639500Y-33401000D02*
X83659500Y-33401000D01*
X83659500Y-33655000D01*
X83639500Y-33655000D01*
X83639500Y-33675000D01*
X83437000Y-33675000D01*
X83437000Y-33381000D01*
X83639500Y-33381000D01*
X83639500Y-33401000D01*
X83639500Y-33401000D01*
G37*
X83639500Y-33401000D02*
X83659500Y-33401000D01*
X83659500Y-33655000D01*
X83639500Y-33655000D01*
X83639500Y-33675000D01*
X83437000Y-33675000D01*
X83437000Y-33381000D01*
X83639500Y-33381000D01*
X83639500Y-33401000D01*
M02*
