G04 #@! TF.GenerationSoftware,KiCad,Pcbnew,(5.0.0-rc2-dev-82-ga78607874)*
G04 #@! TF.CreationDate,2018-03-09T02:59:27+08:00*
G04 #@! TF.ProjectId,SMD-Heart,534D442D48656172742E6B696361645F,rev?*
G04 #@! TF.SameCoordinates,Original*
G04 #@! TF.FileFunction,Soldermask,Top*
G04 #@! TF.FilePolarity,Negative*
%FSLAX46Y46*%
G04 Gerber Fmt 4.6, Leading zero omitted, Abs format (unit mm)*
G04 Created by KiCad (PCBNEW (5.0.0-rc2-dev-82-ga78607874)) date Fri Mar  9 02:59:27 2018*
%MOMM*%
%LPD*%
G01*
G04 APERTURE LIST*
%ADD10C,1.400000*%
%ADD11C,1.070000*%
%ADD12C,0.100000*%
%ADD13C,1.245000*%
%ADD14R,1.245000X1.400000*%
%ADD15R,1.400000X1.245000*%
%ADD16R,1.070000X1.400000*%
%ADD17R,1.400000X1.070000*%
%ADD18R,0.800000X1.050000*%
%ADD19R,1.050000X0.800000*%
%ADD20C,0.800000*%
G04 APERTURE END LIST*
D10*
X67183000Y-30734000D03*
D11*
X73676282Y-52721282D03*
D12*
G36*
X72803005Y-52837955D02*
X73792955Y-51848005D01*
X74549559Y-52604609D01*
X73559609Y-53594559D01*
X72803005Y-52837955D01*
X72803005Y-52837955D01*
G37*
D11*
X74913718Y-53958718D03*
D12*
G36*
X74040441Y-54075391D02*
X75030391Y-53085441D01*
X75786995Y-53842045D01*
X74797045Y-54831995D01*
X74040441Y-54075391D01*
X74040441Y-54075391D01*
G37*
D13*
X67355590Y-46400590D03*
D12*
G36*
X68290739Y-46345789D02*
X67300789Y-47335739D01*
X66420441Y-46455391D01*
X67410391Y-45465441D01*
X68290739Y-46345789D01*
X68290739Y-46345789D01*
G37*
D13*
X65994410Y-45039410D03*
D12*
G36*
X66929559Y-44984609D02*
X65939609Y-45974559D01*
X65059261Y-45094211D01*
X66049211Y-44104261D01*
X66929559Y-44984609D01*
X66929559Y-44984609D01*
G37*
D14*
X83512500Y-32004000D03*
X81587500Y-32004000D03*
X83512500Y-33528000D03*
X81587500Y-33528000D03*
D13*
X85298410Y-33990410D03*
D12*
G36*
X86233559Y-33935609D02*
X85243609Y-34925559D01*
X84363261Y-34045211D01*
X85353211Y-33055261D01*
X86233559Y-33935609D01*
X86233559Y-33935609D01*
G37*
D13*
X86659590Y-35351590D03*
D12*
G36*
X87594739Y-35296789D02*
X86604789Y-36286739D01*
X85724441Y-35406391D01*
X86714391Y-34416441D01*
X87594739Y-35296789D01*
X87594739Y-35296789D01*
G37*
D14*
X88592500Y-38735000D03*
X86667500Y-38735000D03*
D13*
X85262590Y-43896410D03*
D12*
G36*
X85317391Y-44831559D02*
X84327441Y-43841609D01*
X85207789Y-42961261D01*
X86197739Y-43951211D01*
X85317391Y-44831559D01*
X85317391Y-44831559D01*
G37*
D13*
X83901410Y-45257590D03*
D12*
G36*
X83956211Y-46192739D02*
X82966261Y-45202789D01*
X83846609Y-44322441D01*
X84836559Y-45312391D01*
X83956211Y-46192739D01*
X83956211Y-46192739D01*
G37*
D13*
X82758410Y-44114590D03*
D12*
G36*
X82813211Y-45049739D02*
X81823261Y-44059789D01*
X82703609Y-43179441D01*
X83693559Y-44169391D01*
X82813211Y-45049739D01*
X82813211Y-45049739D01*
G37*
D13*
X84119590Y-42753410D03*
D12*
G36*
X84174391Y-43688559D02*
X83184441Y-42698609D01*
X84064789Y-41818261D01*
X85054739Y-42808211D01*
X84174391Y-43688559D01*
X84174391Y-43688559D01*
G37*
D13*
X78821410Y-50337590D03*
D12*
G36*
X78766609Y-49402441D02*
X79756559Y-50392391D01*
X78876211Y-51272739D01*
X77886261Y-50282789D01*
X78766609Y-49402441D01*
X78766609Y-49402441D01*
G37*
D13*
X80182590Y-48976410D03*
D12*
G36*
X80127789Y-48041261D02*
X81117739Y-49031211D01*
X80237391Y-49911559D01*
X79247441Y-48921609D01*
X80127789Y-48041261D01*
X80127789Y-48041261D01*
G37*
D13*
X72217410Y-48976410D03*
D12*
G36*
X71282261Y-49031211D02*
X72272211Y-48041261D01*
X73152559Y-48921609D01*
X72162609Y-49911559D01*
X71282261Y-49031211D01*
X71282261Y-49031211D01*
G37*
D13*
X73578590Y-50337590D03*
D12*
G36*
X72643441Y-50392391D02*
X73633391Y-49402441D01*
X74513739Y-50282789D01*
X73523789Y-51272739D01*
X72643441Y-50392391D01*
X72643441Y-50392391D01*
G37*
D13*
X68280410Y-42753410D03*
D12*
G36*
X69215559Y-42698609D02*
X68225609Y-43688559D01*
X67345261Y-42808211D01*
X68335211Y-41818261D01*
X69215559Y-42698609D01*
X69215559Y-42698609D01*
G37*
D13*
X69641590Y-44114590D03*
D12*
G36*
X70576739Y-44059789D02*
X69586789Y-45049739D01*
X68706441Y-44169391D01*
X69696391Y-43179441D01*
X70576739Y-44059789D01*
X70576739Y-44059789D01*
G37*
D13*
X68498590Y-45257590D03*
D12*
G36*
X69433739Y-45202789D02*
X68443789Y-46192739D01*
X67563441Y-45312391D01*
X68553391Y-44322441D01*
X69433739Y-45202789D01*
X69433739Y-45202789D01*
G37*
D13*
X67137410Y-43896410D03*
D12*
G36*
X68072559Y-43841609D02*
X67082609Y-44831559D01*
X66202261Y-43951211D01*
X67192211Y-42961261D01*
X68072559Y-43841609D01*
X68072559Y-43841609D01*
G37*
D14*
X65732500Y-38735000D03*
X63807500Y-38735000D03*
D13*
X65740410Y-35351590D03*
D12*
G36*
X65795211Y-36286739D02*
X64805261Y-35296789D01*
X65685609Y-34416441D01*
X66675559Y-35406391D01*
X65795211Y-36286739D01*
X65795211Y-36286739D01*
G37*
D13*
X67101590Y-33990410D03*
D12*
G36*
X67156391Y-34925559D02*
X66166441Y-33935609D01*
X67046789Y-33055261D01*
X68036739Y-34045211D01*
X67156391Y-34925559D01*
X67156391Y-34925559D01*
G37*
D14*
X68887500Y-33528000D03*
X70812500Y-33528000D03*
D15*
X78486000Y-36522500D03*
X78486000Y-34597500D03*
D11*
X87646282Y-43798718D03*
D12*
G36*
X87762955Y-44671995D02*
X86773005Y-43682045D01*
X87529609Y-42925441D01*
X88519559Y-43915391D01*
X87762955Y-44671995D01*
X87762955Y-44671995D01*
G37*
D11*
X88883718Y-42561282D03*
D12*
G36*
X89000391Y-43434559D02*
X88010441Y-42444609D01*
X88767045Y-41688005D01*
X89756995Y-42677955D01*
X89000391Y-43434559D01*
X89000391Y-43434559D01*
G37*
D11*
X64753718Y-31766282D03*
D12*
G36*
X64870391Y-32639559D02*
X63880441Y-31649609D01*
X64637045Y-30893005D01*
X65626995Y-31882955D01*
X64870391Y-32639559D01*
X64870391Y-32639559D01*
G37*
D11*
X63516282Y-33003718D03*
D12*
G36*
X63632955Y-33876995D02*
X62643005Y-32887045D01*
X63399609Y-32130441D01*
X64389559Y-33120391D01*
X63632955Y-33876995D01*
X63632955Y-33876995D01*
G37*
D16*
X77075000Y-34163000D03*
X75325000Y-34163000D03*
X81675000Y-30480000D03*
X83425000Y-30480000D03*
D11*
X88883718Y-33003718D03*
D12*
G36*
X89756995Y-32887045D02*
X88767045Y-33876995D01*
X88010441Y-33120391D01*
X89000391Y-32130441D01*
X89756995Y-32887045D01*
X89756995Y-32887045D01*
G37*
D11*
X87646282Y-31766282D03*
D12*
G36*
X88519559Y-31649609D02*
X87529609Y-32639559D01*
X86773005Y-31882955D01*
X87762955Y-30893005D01*
X88519559Y-31649609D01*
X88519559Y-31649609D01*
G37*
D17*
X90170000Y-37225000D03*
X90170000Y-38975000D03*
D11*
X83803718Y-47641282D03*
D12*
G36*
X83687045Y-46768005D02*
X84676995Y-47757955D01*
X83920391Y-48514559D01*
X82930441Y-47524609D01*
X83687045Y-46768005D01*
X83687045Y-46768005D01*
G37*
D11*
X82566282Y-48878718D03*
D12*
G36*
X82449609Y-48005441D02*
X83439559Y-48995391D01*
X82682955Y-49751995D01*
X81693005Y-48762045D01*
X82449609Y-48005441D01*
X82449609Y-48005441D01*
G37*
D11*
X77486282Y-53958718D03*
D12*
G36*
X77369609Y-53085441D02*
X78359559Y-54075391D01*
X77602955Y-54831995D01*
X76613005Y-53842045D01*
X77369609Y-53085441D01*
X77369609Y-53085441D01*
G37*
D11*
X78723718Y-52721282D03*
D12*
G36*
X78607045Y-51848005D02*
X79596995Y-52837955D01*
X78840391Y-53594559D01*
X77850441Y-52604609D01*
X78607045Y-51848005D01*
X78607045Y-51848005D01*
G37*
D11*
X69833718Y-48878718D03*
D12*
G36*
X68960441Y-48995391D02*
X69950391Y-48005441D01*
X70706995Y-48762045D01*
X69717045Y-49751995D01*
X68960441Y-48995391D01*
X68960441Y-48995391D01*
G37*
D11*
X68596282Y-47641282D03*
D12*
G36*
X67723005Y-47757955D02*
X68712955Y-46768005D01*
X69469559Y-47524609D01*
X68479609Y-48514559D01*
X67723005Y-47757955D01*
X67723005Y-47757955D01*
G37*
D11*
X64753718Y-43798718D03*
D12*
G36*
X65626995Y-43682045D02*
X64637045Y-44671995D01*
X63880441Y-43915391D01*
X64870391Y-42925441D01*
X65626995Y-43682045D01*
X65626995Y-43682045D01*
G37*
D11*
X63516282Y-42561282D03*
D12*
G36*
X64389559Y-42444609D02*
X63399609Y-43434559D01*
X62643005Y-42677955D01*
X63632955Y-41688005D01*
X64389559Y-42444609D01*
X64389559Y-42444609D01*
G37*
D17*
X62230000Y-37225000D03*
X62230000Y-38975000D03*
D16*
X68975000Y-30480000D03*
X70725000Y-30480000D03*
D18*
X75550000Y-37526000D03*
X76850000Y-37526000D03*
X76200000Y-35626000D03*
X76200000Y-37526000D03*
X76850000Y-35626000D03*
X75550000Y-35626000D03*
D19*
X68900000Y-36464000D03*
X68900000Y-35164000D03*
X70800000Y-35814000D03*
X68900000Y-35814000D03*
X70800000Y-35164000D03*
X70800000Y-36464000D03*
D20*
X67298371Y-41570868D03*
D12*
G36*
X67386759Y-40916794D02*
X67952445Y-41482480D01*
X67209983Y-42224942D01*
X66644297Y-41659256D01*
X67386759Y-40916794D01*
X67386759Y-40916794D01*
G37*
D20*
X66379132Y-40651629D03*
D12*
G36*
X66467520Y-39997555D02*
X67033206Y-40563241D01*
X66290744Y-41305703D01*
X65725058Y-40740017D01*
X66467520Y-39997555D01*
X66467520Y-39997555D01*
G37*
D20*
X65495249Y-42454751D03*
D12*
G36*
X65583637Y-41800677D02*
X66149323Y-42366363D01*
X65406861Y-43108825D01*
X64841175Y-42543139D01*
X65583637Y-41800677D01*
X65583637Y-41800677D01*
G37*
D20*
X66838751Y-41111249D03*
D12*
G36*
X66927139Y-40457175D02*
X67492825Y-41022861D01*
X66750363Y-41765323D01*
X66184677Y-41199637D01*
X66927139Y-40457175D01*
X66927139Y-40457175D01*
G37*
D20*
X65035629Y-41995132D03*
D12*
G36*
X65124017Y-41341058D02*
X65689703Y-41906744D01*
X64947241Y-42649206D01*
X64381555Y-42083520D01*
X65124017Y-41341058D01*
X65124017Y-41341058D01*
G37*
D20*
X65954868Y-42914371D03*
D12*
G36*
X66043256Y-42260297D02*
X66608942Y-42825983D01*
X65866480Y-43568445D01*
X65300794Y-43002759D01*
X66043256Y-42260297D01*
X66043256Y-42260297D01*
G37*
D20*
X80857132Y-44207629D03*
D12*
G36*
X80768744Y-44861703D02*
X80203058Y-44296017D01*
X80945520Y-43553555D01*
X81511206Y-44119241D01*
X80768744Y-44861703D01*
X80768744Y-44861703D01*
G37*
D20*
X81776371Y-45126868D03*
D12*
G36*
X81687983Y-45780942D02*
X81122297Y-45215256D01*
X81864759Y-44472794D01*
X82430445Y-45038480D01*
X81687983Y-45780942D01*
X81687983Y-45780942D01*
G37*
D20*
X79973249Y-46010751D03*
D12*
G36*
X79884861Y-46664825D02*
X79319175Y-46099139D01*
X80061637Y-45356677D01*
X80627323Y-45922363D01*
X79884861Y-46664825D01*
X79884861Y-46664825D01*
G37*
D20*
X81316751Y-44667249D03*
D12*
G36*
X81228363Y-45321323D02*
X80662677Y-44755637D01*
X81405139Y-44013175D01*
X81970825Y-44578861D01*
X81228363Y-45321323D01*
X81228363Y-45321323D01*
G37*
D20*
X80432868Y-46470371D03*
D12*
G36*
X80344480Y-47124445D02*
X79778794Y-46558759D01*
X80521256Y-45816297D01*
X81086942Y-46381983D01*
X80344480Y-47124445D01*
X80344480Y-47124445D01*
G37*
D20*
X79513629Y-45551132D03*
D12*
G36*
X79425241Y-46205206D02*
X78859555Y-45639520D01*
X79602017Y-44897058D01*
X80167703Y-45462744D01*
X79425241Y-46205206D01*
X79425241Y-46205206D01*
G37*
D20*
X86020868Y-40651629D03*
D12*
G36*
X85366794Y-40563241D02*
X85932480Y-39997555D01*
X86674942Y-40740017D01*
X86109256Y-41305703D01*
X85366794Y-40563241D01*
X85366794Y-40563241D01*
G37*
D20*
X85101629Y-41570868D03*
D12*
G36*
X84447555Y-41482480D02*
X85013241Y-40916794D01*
X85755703Y-41659256D01*
X85190017Y-42224942D01*
X84447555Y-41482480D01*
X84447555Y-41482480D01*
G37*
D20*
X86904751Y-42454751D03*
D12*
G36*
X86250677Y-42366363D02*
X86816363Y-41800677D01*
X87558825Y-42543139D01*
X86993139Y-43108825D01*
X86250677Y-42366363D01*
X86250677Y-42366363D01*
G37*
D20*
X85561249Y-41111249D03*
D12*
G36*
X84907175Y-41022861D02*
X85472861Y-40457175D01*
X86215323Y-41199637D01*
X85649637Y-41765323D01*
X84907175Y-41022861D01*
X84907175Y-41022861D01*
G37*
D20*
X86445132Y-42914371D03*
D12*
G36*
X85791058Y-42825983D02*
X86356744Y-42260297D01*
X87099206Y-43002759D01*
X86533520Y-43568445D01*
X85791058Y-42825983D01*
X85791058Y-42825983D01*
G37*
D20*
X87364371Y-41995132D03*
D12*
G36*
X86710297Y-41906744D02*
X87275983Y-41341058D01*
X88018445Y-42083520D01*
X87452759Y-42649206D01*
X86710297Y-41906744D01*
X86710297Y-41906744D01*
G37*
D19*
X83500000Y-35164000D03*
X83500000Y-36464000D03*
X81600000Y-35814000D03*
X83500000Y-35814000D03*
X81600000Y-36464000D03*
X81600000Y-35164000D03*
D20*
X72886371Y-45551132D03*
D12*
G36*
X72232297Y-45462744D02*
X72797983Y-44897058D01*
X73540445Y-45639520D01*
X72974759Y-46205206D01*
X72232297Y-45462744D01*
X72232297Y-45462744D01*
G37*
D20*
X71967132Y-46470371D03*
D12*
G36*
X71313058Y-46381983D02*
X71878744Y-45816297D01*
X72621206Y-46558759D01*
X72055520Y-47124445D01*
X71313058Y-46381983D01*
X71313058Y-46381983D01*
G37*
D20*
X71083249Y-44667249D03*
D12*
G36*
X70429175Y-44578861D02*
X70994861Y-44013175D01*
X71737323Y-44755637D01*
X71171637Y-45321323D01*
X70429175Y-44578861D01*
X70429175Y-44578861D01*
G37*
D20*
X72426751Y-46010751D03*
D12*
G36*
X71772677Y-45922363D02*
X72338363Y-45356677D01*
X73080825Y-46099139D01*
X72515139Y-46664825D01*
X71772677Y-45922363D01*
X71772677Y-45922363D01*
G37*
D20*
X70623629Y-45126868D03*
D12*
G36*
X69969555Y-45038480D02*
X70535241Y-44472794D01*
X71277703Y-45215256D01*
X70712017Y-45780942D01*
X69969555Y-45038480D01*
X69969555Y-45038480D01*
G37*
D20*
X71542868Y-44207629D03*
D12*
G36*
X70888794Y-44119241D02*
X71454480Y-43553555D01*
X72196942Y-44296017D01*
X71631256Y-44861703D01*
X70888794Y-44119241D01*
X70888794Y-44119241D01*
G37*
D13*
X79964410Y-51480590D03*
D12*
G36*
X79909609Y-50545441D02*
X80899559Y-51535391D01*
X80019211Y-52415739D01*
X79029261Y-51425789D01*
X79909609Y-50545441D01*
X79909609Y-50545441D01*
G37*
D13*
X81325590Y-50119410D03*
D12*
G36*
X81270789Y-49184261D02*
X82260739Y-50174211D01*
X81380391Y-51054559D01*
X80390441Y-50064609D01*
X81270789Y-49184261D01*
X81270789Y-49184261D01*
G37*
D14*
X77162500Y-32512000D03*
X75237500Y-32512000D03*
D13*
X86441410Y-32847410D03*
D12*
G36*
X87376559Y-32792609D02*
X86386609Y-33782559D01*
X85506261Y-32902211D01*
X86496211Y-31912261D01*
X87376559Y-32792609D01*
X87376559Y-32792609D01*
G37*
D13*
X87802590Y-34208590D03*
D12*
G36*
X88737739Y-34153789D02*
X87747789Y-35143739D01*
X86867441Y-34263391D01*
X87857391Y-33273441D01*
X88737739Y-34153789D01*
X88737739Y-34153789D01*
G37*
D14*
X90243500Y-40386000D03*
X88318500Y-40386000D03*
D13*
X85044410Y-46400590D03*
D12*
G36*
X85099211Y-47335739D02*
X84109261Y-46345789D01*
X84989609Y-45465441D01*
X85979559Y-46455391D01*
X85099211Y-47335739D01*
X85099211Y-47335739D01*
G37*
D13*
X86405590Y-45039410D03*
D12*
G36*
X86460391Y-45974559D02*
X85470441Y-44984609D01*
X86350789Y-44104261D01*
X87340739Y-45094211D01*
X86460391Y-45974559D01*
X86460391Y-45974559D01*
G37*
D13*
X81361410Y-47797590D03*
D12*
G36*
X81306609Y-46862441D02*
X82296559Y-47852391D01*
X81416211Y-48732739D01*
X80426261Y-47742789D01*
X81306609Y-46862441D01*
X81306609Y-46862441D01*
G37*
D13*
X82722590Y-46436410D03*
D12*
G36*
X82667789Y-45501261D02*
X83657739Y-46491211D01*
X82777391Y-47371559D01*
X81787441Y-46381609D01*
X82667789Y-45501261D01*
X82667789Y-45501261D01*
G37*
D13*
X71074410Y-50119410D03*
D12*
G36*
X70139261Y-50174211D02*
X71129211Y-49184261D01*
X72009559Y-50064609D01*
X71019609Y-51054559D01*
X70139261Y-50174211D01*
X70139261Y-50174211D01*
G37*
D13*
X72435590Y-51480590D03*
D12*
G36*
X71500441Y-51535391D02*
X72490391Y-50545441D01*
X73370739Y-51425789D01*
X72380789Y-52415739D01*
X71500441Y-51535391D01*
X71500441Y-51535391D01*
G37*
D13*
X71038590Y-47797590D03*
D12*
G36*
X70103441Y-47852391D02*
X71093391Y-46862441D01*
X71973739Y-47742789D01*
X70983789Y-48732739D01*
X70103441Y-47852391D01*
X70103441Y-47852391D01*
G37*
D13*
X69677410Y-46436410D03*
D12*
G36*
X68742261Y-46491211D02*
X69732211Y-45501261D01*
X70612559Y-46381609D01*
X69622609Y-47371559D01*
X68742261Y-46491211D01*
X68742261Y-46491211D01*
G37*
D14*
X62156500Y-40386000D03*
X64081500Y-40386000D03*
D13*
X64597410Y-34208590D03*
D12*
G36*
X64652211Y-35143739D02*
X63662261Y-34153789D01*
X64542609Y-33273441D01*
X65532559Y-34263391D01*
X64652211Y-35143739D01*
X64652211Y-35143739D01*
G37*
D13*
X65958590Y-32847410D03*
D12*
G36*
X66013391Y-33782559D02*
X65023441Y-32792609D01*
X65903789Y-31912261D01*
X66893739Y-32902211D01*
X66013391Y-33782559D01*
X66013391Y-33782559D01*
G37*
D15*
X73914000Y-36522500D03*
X73914000Y-34597500D03*
D14*
X70812500Y-32004000D03*
X68887500Y-32004000D03*
D10*
X85217000Y-30734000D03*
M02*
